<svg width="396" height="216" viewBox="0 0 396 216" fill="none" xmlns="http://www.w3.org/2000/svg">
<rect x="37.4" y="2" width="173" height="40" rx="8" fill="#E5E5E5" fill-opacity="0.4"/>
<rect x="41.4" y="6" width="32" height="32" rx="6.4" fill="#F3B01C"/>
<rect x="41.4" y="6" width="32" height="32" rx="6.4" fill="url(#paint0_linear_1387_2022)" fill-opacity="0.3"/>
<rect x="41.9" y="6.5" width="31" height="31" rx="5.9" stroke="black" stroke-opacity="0.1"/>
<path fill-rule="evenodd" clip-rule="evenodd" d="M56.8433 28.5184C56.4664 28.8896 56.0925 29.2211 55.727 29.5091C54.9477 30.1232 54.2397 30.5134 53.649 30.6902C53.0603 30.8663 52.6638 30.8117 52.4007 30.6598C52.1377 30.5079 51.892 30.1918 51.7503 29.594C51.6079 28.994 51.5919 28.1857 51.7341 27.2037C51.8008 26.7432 51.9009 26.2538 52.0339 25.7418C52.9398 25.9493 53.9283 26.1058 54.9747 26.2017C55.5809 27.06 56.2107 27.8376 56.8433 28.5184ZM54.389 25.3355C53.6346 25.2452 52.9194 25.1222 52.2538 24.9714C52.4559 24.3196 52.707 23.6386 53.006 22.9401C53.2124 23.3439 53.4329 23.7496 53.6672 24.1554C53.9015 24.5612 54.1426 24.9549 54.389 25.3355ZM57.4003 25.5109C56.7202 25.5109 56.0571 25.485 55.4168 25.4361C55.0541 24.9059 54.7002 24.3445 54.36 23.7554C54.0199 23.1662 53.7106 22.5789 53.4328 21.9998C53.7106 21.4207 54.0198 20.8335 54.3599 20.2444C54.7 19.6553 55.054 19.0938 55.4167 18.5637C56.057 18.5147 56.7201 18.4889 57.4003 18.4889C58.0807 18.4889 58.744 18.5148 59.3845 18.5638C59.7471 19.0939 60.1011 19.6553 60.4412 20.2444C60.7813 20.8335 61.0905 21.4207 61.3683 21.9998C61.0905 22.5789 60.7813 23.1662 60.4411 23.7554C60.101 24.3445 59.747 24.9059 59.3844 25.436C58.7439 25.485 58.0807 25.5109 57.4003 25.5109ZM57.4003 26.3109C56.9319 26.3109 56.4704 26.299 56.0177 26.2759C56.473 26.884 56.9372 27.4418 57.4006 27.9428C57.8639 27.4418 58.3281 26.8839 58.7834 26.2758C58.3306 26.299 57.8689 26.3109 57.4003 26.3109ZM57.9578 28.5184C58.5904 27.8376 59.2202 27.0599 59.8264 26.2017C60.8729 26.1058 61.8613 25.9492 62.7672 25.7417C62.9002 26.2538 63.0003 26.7432 63.067 27.2037C63.2092 28.1857 63.1932 28.994 63.0509 29.594C62.9091 30.1918 62.6635 30.5079 62.4004 30.6598C62.1373 30.8117 61.7408 30.8663 61.1522 30.6902C60.5614 30.5134 59.8534 30.1232 59.0741 29.5091C58.7086 29.2211 58.3348 28.8896 57.9578 28.5184ZM62.8004 31.3526C64.0735 30.6176 64.2761 28.3723 63.5429 25.5461C66.3569 24.7679 68.1999 23.4698 68.1999 21.9999C68.1999 20.5299 66.3568 19.2318 63.5428 18.4537C64.276 15.6275 64.0733 13.3822 62.8003 12.6472C61.5273 11.9122 59.4815 12.8593 57.4006 14.9073C55.3196 12.8593 53.2739 11.9122 52.0008 12.6472C50.7278 13.3822 50.5251 15.6274 51.2583 18.4535C48.444 19.2317 46.6008 20.5299 46.6008 21.9999C46.6008 23.4699 48.444 24.7681 51.2582 25.5462C50.525 28.3723 50.7277 30.6176 52.0007 31.3526C53.2738 32.0876 55.3196 31.1404 57.4006 29.0924C59.4815 31.1404 61.5273 32.0876 62.8004 31.3526ZM64.7402 19.6946C64.3081 19.5221 63.8342 19.3641 63.3244 19.2233C63.0511 20.1115 62.6925 21.0457 62.2524 21.9998C62.6926 22.954 63.0512 23.8882 63.3244 24.7765C63.8343 24.6357 64.3081 24.4777 64.7402 24.3052C65.6617 23.9374 66.3537 23.5194 66.8021 23.0961C67.249 22.6744 67.3999 22.3036 67.3999 21.9999C67.3999 21.6961 67.249 21.3254 66.8021 20.9037C66.3537 20.4804 65.6617 20.0624 64.7402 19.6946ZM63.0669 16.7961C63.0002 17.2566 62.9001 17.746 62.7671 18.258C61.8613 18.0506 60.8729 17.894 59.8265 17.7981C59.2203 16.9398 58.5905 16.1621 57.9578 15.4813C58.3347 15.1101 58.7085 14.7787 59.074 14.4907C59.8533 13.8766 60.5613 13.4864 61.152 13.3096C61.7407 13.1335 62.1372 13.1881 62.4003 13.34C62.6633 13.4919 62.909 13.808 63.0508 14.4058C63.1931 15.0058 63.2091 15.8141 63.0669 16.7961ZM62.5472 19.0285C61.8817 18.8777 61.1665 18.7546 60.4123 18.6643C60.6587 19.0449 60.8998 19.4387 61.134 19.8444C61.3683 20.2501 61.5887 20.6558 61.7951 21.0594C62.094 20.3611 62.3451 19.6802 62.5472 19.0285ZM57.4006 16.0569C57.864 16.5579 58.3281 17.1158 58.7835 17.7239C58.3306 17.7008 57.869 17.6889 57.4003 17.6889C56.9319 17.6889 56.4704 17.7008 56.0176 17.7239C56.473 17.1158 56.9372 16.5579 57.4006 16.0569ZM56.8433 15.4813C56.2107 16.1621 55.5809 16.9398 54.9746 17.7981C53.9282 17.8939 52.9399 18.0505 52.034 18.258C51.901 17.746 51.8009 17.2565 51.7342 16.7961C51.592 15.8141 51.608 15.0058 51.7504 14.4058C51.8922 13.808 52.1378 13.4919 52.4008 13.34C52.6639 13.1881 53.0604 13.1335 53.6491 13.3096C54.2399 13.4864 54.9479 13.8766 55.7272 14.4907C56.0926 14.7787 56.4664 15.1101 56.8433 15.4813ZM52.2539 19.0284C52.9194 18.8776 53.6346 18.7545 54.3889 18.6642C54.1425 19.0448 53.9014 19.4386 53.6671 19.8444C53.4328 20.2501 53.2124 20.6558 53.006 21.0594C52.7071 20.361 52.456 19.6801 52.2539 19.0284ZM52.5488 21.9998C52.1086 21.0456 51.75 20.1114 51.4767 19.2231C50.9667 19.364 50.4927 19.522 50.0605 19.6946C49.139 20.0624 48.447 20.4804 47.9985 20.9037C47.5517 21.3254 47.4008 21.6961 47.4008 21.9999C47.4008 22.3036 47.5517 22.6744 47.9985 23.0961C48.447 23.5194 49.139 23.9374 50.0605 24.3052C50.4927 24.4777 50.9666 24.6358 51.4766 24.7766C51.7499 23.8883 52.1085 22.954 52.5488 21.9998ZM60.4122 25.3355C61.1665 25.2452 61.8818 25.1221 62.5473 24.9713C62.3451 24.3195 62.0941 23.6386 61.7951 22.9401C61.5887 23.3439 61.3682 23.7496 61.1339 24.1554C60.8997 24.5611 60.6586 24.9549 60.4122 25.3355ZM57.4012 23.8564C58.45 23.8564 59.3003 23.0062 59.3003 21.9573C59.3003 20.9085 58.45 20.0583 57.4012 20.0583C56.3524 20.0583 55.5021 20.9085 55.5021 21.9573C55.5021 23.0062 56.3524 23.8564 57.4012 23.8564Z" fill="#292929"/>
<path d="M82.174 25V18.718H86.215V19.564H83.182V21.391H85.936V22.237H83.182V25H82.174ZM88.9115 25H87.9125V18.718H90.2615C90.8615 18.718 91.3175 18.886 91.6295 19.222C91.9475 19.558 92.1065 20.02 92.1065 20.608C92.1065 21.088 91.9895 21.484 91.7555 21.796C91.5215 22.108 91.1855 22.3 90.7475 22.372L92.1965 25H91.0805L89.7485 22.462H88.9115V25ZM90.1175 21.652C90.7415 21.652 91.0535 21.367 91.0535 20.797V20.41C91.0535 19.84 90.7415 19.555 90.1175 19.555H88.9115V21.652H90.1175ZM97.071 25L96.594 23.326H94.596L94.119 25H93.093L94.929 18.718H96.306L98.142 25H97.071ZM95.631 19.735H95.559L94.785 22.489H96.405L95.631 19.735ZM102.674 21.994L102.701 20.104H102.629L101.369 23.335L100.109 20.104H100.037L100.064 21.994V25H99.1734V18.718H100.406L101.369 21.211H101.432L102.404 18.718H103.565V25H102.674V21.994ZM105.2 25V18.718H109.133V19.564H106.208V21.391H109.025V22.237H106.208V24.154H109.133V25H105.2ZM110.857 25L110.407 18.718H111.289L111.514 22.372L111.613 23.983H111.685L112.396 20.239H113.395L114.106 23.983H114.178L114.277 22.372L114.511 18.718H115.357L114.907 25H113.557L112.918 21.364H112.846L112.207 25H110.857ZM118.639 25.108C118.243 25.108 117.898 25.036 117.604 24.892C117.316 24.742 117.076 24.529 116.884 24.253C116.698 23.977 116.56 23.638 116.47 23.236C116.38 22.834 116.335 22.375 116.335 21.859C116.335 21.349 116.38 20.893 116.47 20.491C116.56 20.083 116.698 19.741 116.884 19.465C117.076 19.189 117.316 18.979 117.604 18.835C117.898 18.685 118.243 18.61 118.639 18.61C119.035 18.61 119.377 18.685 119.665 18.835C119.959 18.979 120.199 19.189 120.385 19.465C120.577 19.741 120.718 20.083 120.808 20.491C120.898 20.893 120.943 21.349 120.943 21.859C120.943 22.375 120.898 22.834 120.808 23.236C120.718 23.638 120.577 23.977 120.385 24.253C120.199 24.529 119.959 24.742 119.665 24.892C119.377 25.036 119.035 25.108 118.639 25.108ZM118.639 24.271C119.089 24.271 119.407 24.103 119.593 23.767C119.779 23.425 119.872 22.963 119.872 22.381V21.328C119.872 20.752 119.779 20.296 119.593 19.96C119.407 19.618 119.089 19.447 118.639 19.447C118.189 19.447 117.871 19.618 117.685 19.96C117.499 20.296 117.406 20.752 117.406 21.328V22.39C117.406 22.966 117.499 23.425 117.685 23.767C117.871 24.103 118.189 24.271 118.639 24.271ZM123.45 25H122.451V18.718H124.8C125.4 18.718 125.856 18.886 126.168 19.222C126.486 19.558 126.645 20.02 126.645 20.608C126.645 21.088 126.528 21.484 126.294 21.796C126.06 22.108 125.724 22.3 125.286 22.372L126.735 25H125.619L124.287 22.462H123.45V25ZM124.656 21.652C125.28 21.652 125.592 21.367 125.592 20.797V20.41C125.592 19.84 125.28 19.555 124.656 19.555H123.45V21.652H124.656ZM129.918 22.111L129.162 23.056V25H128.154V18.718H129.162V21.724H129.207L129.972 20.68L131.511 18.718H132.672L130.602 21.364L132.753 25H131.601L129.918 22.111ZM139.685 25V24.235H141.161V19.483H139.685V18.718H143.645V19.483H142.169V24.235H143.645V25H139.685ZM146.332 20.167H146.251V25H145.369V18.718H146.665L148.51 23.551H148.591V18.718H149.473V25H148.177L146.332 20.167ZM153.682 19.564V25H152.674V19.564H150.703V18.718H155.653V19.564H153.682ZM157.008 25V18.718H160.941V19.564H158.016V21.391H160.833V22.237H158.016V24.154H160.941V25H157.008ZM165.861 24.136H165.798C165.744 24.262 165.678 24.385 165.6 24.505C165.528 24.619 165.435 24.721 165.321 24.811C165.213 24.901 165.081 24.973 164.925 25.027C164.769 25.081 164.589 25.108 164.385 25.108C163.731 25.108 163.239 24.829 162.909 24.271C162.579 23.713 162.414 22.924 162.414 21.904C162.414 20.836 162.603 20.02 162.981 19.456C163.359 18.892 163.938 18.61 164.718 18.61C165.024 18.61 165.291 18.652 165.519 18.736C165.753 18.82 165.951 18.934 166.113 19.078C166.275 19.216 166.41 19.381 166.518 19.573C166.626 19.759 166.713 19.957 166.779 20.167L165.87 20.473C165.822 20.335 165.768 20.206 165.708 20.086C165.648 19.96 165.573 19.849 165.483 19.753C165.399 19.657 165.294 19.582 165.168 19.528C165.048 19.474 164.901 19.447 164.727 19.447C164.289 19.447 163.971 19.618 163.773 19.96C163.581 20.296 163.485 20.752 163.485 21.328V22.327C163.485 22.615 163.506 22.879 163.548 23.119C163.59 23.359 163.659 23.566 163.755 23.74C163.857 23.908 163.986 24.04 164.142 24.136C164.304 24.232 164.499 24.28 164.727 24.28C165.093 24.28 165.372 24.172 165.564 23.956C165.762 23.734 165.861 23.452 165.861 23.11V22.543H164.646V21.787H166.779V25H165.861V24.136ZM169.502 25H168.503V18.718H170.852C171.452 18.718 171.908 18.886 172.22 19.222C172.538 19.558 172.697 20.02 172.697 20.608C172.697 21.088 172.58 21.484 172.346 21.796C172.112 22.108 171.776 22.3 171.338 22.372L172.787 25H171.671L170.339 22.462H169.502V25ZM170.708 21.652C171.332 21.652 171.644 21.367 171.644 20.797V20.41C171.644 19.84 171.332 19.555 170.708 19.555H169.502V21.652H170.708ZM177.662 25L177.185 23.326H175.187L174.71 25H173.684L175.52 18.718H176.897L178.733 25H177.662ZM176.222 19.735H176.15L175.376 22.489H176.996L176.222 19.735ZM182.464 19.564V25H181.456V19.564H179.485V18.718H184.435V19.564H182.464ZM185.737 25V24.235H187.213V19.483H185.737V18.718H189.697V19.483H188.221V24.235H189.697V25H185.737ZM193.473 25.108C193.077 25.108 192.732 25.036 192.438 24.892C192.15 24.742 191.91 24.529 191.718 24.253C191.532 23.977 191.394 23.638 191.304 23.236C191.214 22.834 191.169 22.375 191.169 21.859C191.169 21.349 191.214 20.893 191.304 20.491C191.394 20.083 191.532 19.741 191.718 19.465C191.91 19.189 192.15 18.979 192.438 18.835C192.732 18.685 193.077 18.61 193.473 18.61C193.869 18.61 194.211 18.685 194.499 18.835C194.793 18.979 195.033 19.189 195.219 19.465C195.411 19.741 195.552 20.083 195.642 20.491C195.732 20.893 195.777 21.349 195.777 21.859C195.777 22.375 195.732 22.834 195.642 23.236C195.552 23.638 195.411 23.977 195.219 24.253C195.033 24.529 194.793 24.742 194.499 24.892C194.211 25.036 193.869 25.108 193.473 25.108ZM193.473 24.271C193.923 24.271 194.241 24.103 194.427 23.767C194.613 23.425 194.706 22.963 194.706 22.381V21.328C194.706 20.752 194.613 20.296 194.427 19.96C194.241 19.618 193.923 19.447 193.473 19.447C193.023 19.447 192.705 19.618 192.519 19.96C192.333 20.296 192.24 20.752 192.24 21.328V22.39C192.24 22.966 192.333 23.425 192.519 23.767C192.705 24.103 193.023 24.271 193.473 24.271ZM198.141 20.167H198.06V25H197.178V18.718H198.474L200.319 23.551H200.4V18.718H201.282V25H199.986L198.141 20.167Z" fill="#38383A"/>
<rect x="213.6" y="2" width="144" height="40" rx="8" fill="#E5E5E5" fill-opacity="0.4"/>
<rect x="217.6" y="6" width="32" height="32" rx="6.4" fill="#8D2676"/>
<rect x="217.6" y="6" width="32" height="32" rx="6.4" fill="url(#paint1_linear_1387_2022)" fill-opacity="0.3"/>
<rect x="218.1" y="6.5" width="31" height="31" rx="5.9" stroke="black" stroke-opacity="0.1"/>
<path d="M240.8 22.323C240.8 26.2995 237.576 29.523 233.6 29.523C231.413 29.523 229.453 28.5478 228.133 27.0084M226.4 22.323C226.4 18.3466 229.624 15.123 233.6 15.123C235.745 15.123 237.67 16.0607 238.989 17.5485M238.989 17.5485V15.283M238.989 17.5485H236.615M228.133 27.0084V29.2077M228.133 27.0084H230.36" stroke="white" stroke-width="0.8" stroke-linecap="round" stroke-linejoin="round"/>
<path d="M259.355 25H258.356V18.718H260.705C261.305 18.718 261.761 18.886 262.073 19.222C262.391 19.558 262.55 20.02 262.55 20.608C262.55 21.088 262.433 21.484 262.199 21.796C261.965 22.108 261.629 22.3 261.191 22.372L262.64 25H261.524L260.192 22.462H259.355V25ZM260.561 21.652C261.185 21.652 261.497 21.367 261.497 20.797V20.41C261.497 19.84 261.185 19.555 260.561 19.555H259.355V21.652H260.561ZM264.13 25V18.718H268.063V19.564H265.138V21.391H267.955V22.237H265.138V24.154H268.063V25H264.13ZM273.271 25L272.794 23.326H270.796L270.319 25H269.293L271.129 18.718H272.506L274.342 25H273.271ZM271.831 19.735H271.759L270.985 22.489H272.605L271.831 19.735ZM275.841 25V18.718H276.849V24.154H279.711V25H275.841ZM283.83 19.564V25H282.822V19.564H280.851V18.718H285.801V19.564H283.83ZM287.102 25V24.235H288.578V19.483H287.102V18.718H291.062V19.483H289.586V24.235H291.062V25H287.102ZM296.144 21.994L296.171 20.104H296.099L294.839 23.335L293.579 20.104H293.507L293.534 21.994V25H292.643V18.718H293.876L294.839 21.211H294.902L295.874 18.718H297.035V25H296.144V21.994ZM298.669 25V18.718H302.602V19.564H299.677V21.391H302.494V22.237H299.677V24.154H302.602V25H298.669ZM311.037 18.718V22.579C311.037 22.837 311.043 23.071 311.055 23.281C311.073 23.491 311.118 23.671 311.19 23.821C311.262 23.965 311.37 24.076 311.514 24.154C311.658 24.232 311.856 24.271 312.108 24.271C312.36 24.271 312.558 24.232 312.702 24.154C312.846 24.076 312.954 23.965 313.026 23.821C313.098 23.671 313.14 23.491 313.152 23.281C313.17 23.071 313.179 22.837 313.179 22.579V18.718H314.187V22.399C314.187 22.849 314.16 23.245 314.106 23.587C314.058 23.923 313.959 24.205 313.809 24.433C313.659 24.655 313.446 24.823 313.17 24.937C312.9 25.051 312.546 25.108 312.108 25.108C311.67 25.108 311.313 25.051 311.037 24.937C310.767 24.823 310.557 24.655 310.407 24.433C310.257 24.205 310.155 23.923 310.101 23.587C310.053 23.245 310.029 22.849 310.029 22.399V18.718H311.037ZM315.921 25V18.718H318.27C318.87 18.718 319.326 18.886 319.638 19.222C319.956 19.558 320.115 20.02 320.115 20.608C320.115 21.196 319.956 21.658 319.638 21.994C319.326 22.33 318.87 22.498 318.27 22.498H316.929V25H315.921ZM316.929 21.661H318.117C318.741 21.661 319.053 21.373 319.053 20.797V20.41C319.053 19.84 318.741 19.555 318.117 19.555H316.929V21.661ZM321.659 18.718H323.531C324.335 18.718 324.929 18.985 325.313 19.519C325.703 20.053 325.898 20.833 325.898 21.859C325.898 22.885 325.703 23.665 325.313 24.199C324.929 24.733 324.335 25 323.531 25H321.659V18.718ZM323.468 24.172C323.93 24.172 324.272 24.019 324.494 23.713C324.722 23.401 324.836 22.957 324.836 22.381V21.337C324.836 20.761 324.722 20.32 324.494 20.014C324.272 19.702 323.93 19.546 323.468 19.546H322.658V24.172H323.468ZM330.836 25L330.359 23.326H328.361L327.884 25H326.858L328.694 18.718H330.071L331.907 25H330.836ZM329.396 19.735H329.324L328.55 22.489H330.17L329.396 19.735ZM335.638 19.564V25H334.63V19.564H332.659V18.718H337.609V19.564H335.638ZM338.965 25V18.718H342.898V19.564H339.973V21.391H342.79V22.237H339.973V24.154H342.898V25H338.965ZM346.593 25.108C346.047 25.108 345.588 25.012 345.216 24.82C344.844 24.628 344.538 24.373 344.298 24.055L344.946 23.434C345.186 23.722 345.441 23.935 345.711 24.073C345.981 24.205 346.287 24.271 346.629 24.271C347.025 24.271 347.328 24.181 347.538 24.001C347.754 23.821 347.862 23.563 347.862 23.227C347.862 22.957 347.784 22.75 347.628 22.606C347.472 22.456 347.205 22.348 346.827 22.282L346.143 22.174C345.843 22.126 345.591 22.048 345.387 21.94C345.183 21.826 345.018 21.694 344.892 21.544C344.766 21.388 344.673 21.217 344.613 21.031C344.559 20.839 344.532 20.638 344.532 20.428C344.532 19.834 344.724 19.384 345.108 19.078C345.492 18.766 346.02 18.61 346.692 18.61C347.19 18.61 347.613 18.691 347.961 18.853C348.315 19.009 348.6 19.231 348.816 19.519L348.186 20.149C348.012 19.939 347.805 19.771 347.565 19.645C347.331 19.513 347.04 19.447 346.692 19.447C346.32 19.447 346.035 19.528 345.837 19.69C345.645 19.846 345.549 20.077 345.549 20.383C345.549 20.641 345.624 20.845 345.774 20.995C345.93 21.139 346.203 21.244 346.593 21.31L347.259 21.427C347.823 21.529 348.234 21.736 348.492 22.048C348.75 22.354 348.879 22.729 348.879 23.173C348.879 23.461 348.828 23.725 348.726 23.965C348.63 24.205 348.483 24.409 348.285 24.577C348.093 24.745 347.853 24.877 347.565 24.973C347.283 25.063 346.959 25.108 346.593 25.108Z" fill="#38383A"/>
<rect x="63.4" y="45.2002" width="115" height="40" rx="8" fill="#E5E5E5" fill-opacity="0.4"/>
<rect x="67.4" y="49.2002" width="32" height="32" rx="6.4" fill="#292929"/>
<rect x="67.4" y="49.2002" width="32" height="32" rx="6.4" fill="url(#paint2_linear_1387_2022)" fill-opacity="0.3"/>
<rect x="67.9" y="49.7002" width="31" height="31" rx="5.9" stroke="black" stroke-opacity="0.1"/>
<path fill-rule="evenodd" clip-rule="evenodd" d="M91.4 56.7233H75.4C74.9582 56.7233 74.6 57.0815 74.6 57.5233V73.5233C74.6 73.9652 74.9582 74.3233 75.4 74.3233H91.4C91.8418 74.3233 92.2 73.9652 92.2 73.5233V57.5233C92.2 57.0815 91.8418 56.7233 91.4 56.7233ZM75.4 55.9233C74.5163 55.9233 73.8 56.6397 73.8 57.5233V73.5233C73.8 74.407 74.5163 75.1233 75.4 75.1233H91.4C92.2836 75.1233 93 74.407 93 73.5233V57.5233C93 56.6397 92.2836 55.9233 91.4 55.9233H75.4Z" fill="white"/>
<line x1="79.8508" y1="66.2694" x2="85.4508" y2="66.2694" stroke="white" stroke-width="0.8"/>
<line x1="82.6508" y1="66.6304" x2="82.6508" y2="72.2167" stroke="white" stroke-width="0.8"/>
<path d="M89.9089 67.0763C89.7127 66.7816 89.1065 66.1924 88.2518 66.1924C87.1835 66.1924 86.6972 66.6847 86.5572 67.3709C86.432 67.9843 86.9514 68.4996 87.6436 68.6783C88.7155 68.9549 89.4782 69.1964 89.7262 69.7958C90.0602 70.6029 89.6984 71.6606 88.5016 71.7997C87.3048 71.9389 86.5572 71.4797 86.0524 70.8534" stroke="white" stroke-width="0.8"/>
<path d="M110.604 62.7642V68.2002H109.596V62.7642H107.625V61.9182H112.575V62.7642H110.604ZM115.352 68.2002V65.8332L113.264 61.9182H114.389L115.19 63.4842L115.838 64.8252H115.892L116.549 63.4842L117.35 61.9182H118.448L116.36 65.8332V68.2002H115.352ZM119.669 68.2002V61.9182H122.018C122.618 61.9182 123.074 62.0862 123.386 62.4222C123.704 62.7582 123.863 63.2202 123.863 63.8082C123.863 64.3962 123.704 64.8582 123.386 65.1942C123.074 65.5302 122.618 65.6982 122.018 65.6982H120.677V68.2002H119.669ZM120.677 64.8612H121.865C122.489 64.8612 122.801 64.5732 122.801 63.9972V63.6102C122.801 63.0402 122.489 62.7552 121.865 62.7552H120.677V64.8612ZM125.443 68.2002V61.9182H129.376V62.7642H126.451V64.5912H129.268V65.4372H126.451V67.3542H129.376V68.2002H125.443ZM138.828 68.3082C138.282 68.3082 137.823 68.2122 137.451 68.0202C137.079 67.8282 136.773 67.5732 136.533 67.2552L137.181 66.6342C137.421 66.9222 137.676 67.1352 137.946 67.2732C138.216 67.4052 138.522 67.4712 138.864 67.4712C139.26 67.4712 139.563 67.3812 139.773 67.2012C139.989 67.0212 140.097 66.7632 140.097 66.4272C140.097 66.1572 140.019 65.9502 139.863 65.8062C139.707 65.6562 139.44 65.5482 139.062 65.4822L138.378 65.3742C138.078 65.3262 137.826 65.2482 137.622 65.1402C137.418 65.0262 137.253 64.8942 137.127 64.7442C137.001 64.5882 136.908 64.4172 136.848 64.2312C136.794 64.0392 136.767 63.8382 136.767 63.6282C136.767 63.0342 136.959 62.5842 137.343 62.2782C137.727 61.9662 138.255 61.8102 138.927 61.8102C139.425 61.8102 139.848 61.8912 140.196 62.0532C140.55 62.2092 140.835 62.4312 141.051 62.7192L140.421 63.3492C140.247 63.1392 140.04 62.9712 139.8 62.8452C139.566 62.7132 139.275 62.6472 138.927 62.6472C138.555 62.6472 138.27 62.7282 138.072 62.8902C137.88 63.0462 137.784 63.2772 137.784 63.5832C137.784 63.8412 137.859 64.0452 138.009 64.1952C138.165 64.3392 138.438 64.4442 138.828 64.5102L139.494 64.6272C140.058 64.7292 140.469 64.9362 140.727 65.2482C140.985 65.5542 141.114 65.9292 141.114 66.3732C141.114 66.6612 141.063 66.9252 140.961 67.1652C140.865 67.4052 140.718 67.6092 140.52 67.7772C140.328 67.9452 140.088 68.0772 139.8 68.1732C139.518 68.2632 139.194 68.3082 138.828 68.3082ZM146.097 68.2002L145.62 66.5262H143.622L143.145 68.2002H142.119L143.955 61.9182H145.332L147.168 68.2002H146.097ZM144.657 62.9352H144.585L143.811 65.6892H145.431L144.657 62.9352ZM148.469 68.2002V61.9182H152.51V62.7642H149.477V64.5912H152.231V65.4372H149.477V68.2002H148.469ZM154.226 68.2002V61.9182H158.159V62.7642H155.234V64.5912H158.051V65.4372H155.234V67.3542H158.159V68.2002H154.226ZM162.412 62.7642V68.2002H161.404V62.7642H159.433V61.9182H164.383V62.7642H162.412ZM167.161 68.2002V65.8332L165.073 61.9182H166.198L166.999 63.4842L167.647 64.8252H167.701L168.358 63.4842L169.159 61.9182H170.257L168.169 65.8332V68.2002H167.161Z" fill="#38383A"/>
<rect x="181.6" y="45.2002" width="150" height="40" rx="8" fill="#E5E5E5" fill-opacity="0.4"/>
<rect x="185.6" y="49.2002" width="32" height="32" rx="6.4" fill="#F3B01C"/>
<rect x="185.6" y="49.2002" width="32" height="32" rx="6.4" fill="url(#paint3_linear_1387_2022)" fill-opacity="0.3"/>
<rect x="186.1" y="49.7002" width="31" height="31" rx="5.9" stroke="black" stroke-opacity="0.1"/>
<g clip-path="url(#clip0_1387_2022)">
<circle cx="198.177" cy="64.7836" r="3.2" stroke="#292929" stroke-width="0.8"/>
<circle cx="198.177" cy="56.7839" r="2.4" stroke="#292929" stroke-width="0.8"/>
<circle cx="198.177" cy="72.7839" r="2.4" stroke="#292929" stroke-width="0.8"/>
<circle cx="206.577" cy="70.7838" r="2" stroke="#292929" stroke-width="0.8"/>
<circle cx="206.577" cy="59.5836" r="2" stroke="#292929" stroke-width="0.8"/>
<line x1="198.177" y1="58.7837" x2="198.177" y2="61.9837" stroke="#292929" stroke-width="0.8"/>
<line x1="205.229" y1="60.7279" x2="201.182" y2="63.1279" stroke="#292929" stroke-width="0.8"/>
<line y1="-0.4" x2="4.70577" y2="-0.4" transform="matrix(0.860167 0.510012 0.510012 -0.860167 200.977 66.7837)" stroke="#292929" stroke-width="0.8"/>
<line x1="198.177" y1="67.584" x2="198.177" y2="70.784" stroke="#292929" stroke-width="0.8"/>
</g>
<path d="M229.758 68.2002L229.281 66.5262H227.283L226.806 68.2002H225.78L227.616 61.9182H228.993L230.829 68.2002H229.758ZM228.318 62.9352H228.246L227.472 65.6892H229.092L228.318 62.9352ZM232.985 61.9182V65.7792C232.985 66.0372 232.991 66.2712 233.003 66.4812C233.021 66.6912 233.066 66.8712 233.138 67.0212C233.21 67.1652 233.318 67.2762 233.462 67.3542C233.606 67.4322 233.804 67.4712 234.056 67.4712C234.308 67.4712 234.506 67.4322 234.65 67.3542C234.794 67.2762 234.902 67.1652 234.974 67.0212C235.046 66.8712 235.088 66.6912 235.1 66.4812C235.118 66.2712 235.127 66.0372 235.127 65.7792V61.9182H236.135V65.5992C236.135 66.0492 236.108 66.4452 236.054 66.7872C236.006 67.1232 235.907 67.4052 235.757 67.6332C235.607 67.8552 235.394 68.0232 235.118 68.1372C234.848 68.2512 234.494 68.3082 234.056 68.3082C233.618 68.3082 233.261 68.2512 232.985 68.1372C232.715 68.0232 232.505 67.8552 232.355 67.6332C232.205 67.4052 232.103 67.1232 232.049 66.7872C232.001 66.4452 231.977 66.0492 231.977 65.5992V61.9182H232.985ZM240.317 62.7642V68.2002H239.309V62.7642H237.338V61.9182H242.288V62.7642H240.317ZM245.569 68.3082C245.173 68.3082 244.828 68.2362 244.534 68.0922C244.246 67.9422 244.006 67.7292 243.814 67.4532C243.628 67.1772 243.49 66.8382 243.4 66.4362C243.31 66.0342 243.265 65.5752 243.265 65.0592C243.265 64.5492 243.31 64.0932 243.4 63.6912C243.49 63.2832 243.628 62.9412 243.814 62.6652C244.006 62.3892 244.246 62.1792 244.534 62.0352C244.828 61.8852 245.173 61.8102 245.569 61.8102C245.965 61.8102 246.307 61.8852 246.595 62.0352C246.889 62.1792 247.129 62.3892 247.315 62.6652C247.507 62.9412 247.648 63.2832 247.738 63.6912C247.828 64.0932 247.873 64.5492 247.873 65.0592C247.873 65.5752 247.828 66.0342 247.738 66.4362C247.648 66.8382 247.507 67.1772 247.315 67.4532C247.129 67.7292 246.889 67.9422 246.595 68.0922C246.307 68.2362 245.965 68.3082 245.569 68.3082ZM245.569 67.4712C246.019 67.4712 246.337 67.3032 246.523 66.9672C246.709 66.6252 246.802 66.1632 246.802 65.5812V64.5282C246.802 63.9522 246.709 63.4962 246.523 63.1602C246.337 62.8182 246.019 62.6472 245.569 62.6472C245.119 62.6472 244.801 62.8182 244.615 63.1602C244.429 63.4962 244.336 63.9522 244.336 64.5282V65.5902C244.336 66.1662 244.429 66.6252 244.615 66.9672C244.801 67.3032 245.119 67.4712 245.569 67.4712ZM252.631 65.1942L252.658 63.3042H252.586L251.326 66.5352L250.066 63.3042H249.994L250.021 65.1942V68.2002H249.13V61.9182H250.363L251.326 64.4112H251.389L252.361 61.9182H253.522V68.2002H252.631V65.1942ZM258.54 68.2002L258.063 66.5262H256.065L255.588 68.2002H254.562L256.398 61.9182H257.775L259.611 68.2002H258.54ZM257.1 62.9352H257.028L256.254 65.6892H257.874L257.1 62.9352ZM263.343 62.7642V68.2002H262.335V62.7642H260.364V61.9182H265.314V62.7642H263.343ZM266.615 68.2002V67.4352H268.091V62.6832H266.615V61.9182H270.575V62.6832H269.099V67.4352H270.575V68.2002H266.615ZM274.532 68.3082C273.734 68.3082 273.14 68.0262 272.75 67.4622C272.366 66.8982 272.174 66.0972 272.174 65.0592C272.174 64.0212 272.366 63.2202 272.75 62.6562C273.14 62.0922 273.734 61.8102 274.532 61.8102C274.838 61.8102 275.102 61.8522 275.324 61.9362C275.552 62.0142 275.747 62.1252 275.909 62.2692C276.071 62.4072 276.206 62.5722 276.314 62.7642C276.428 62.9502 276.521 63.1512 276.593 63.3672L275.684 63.6732C275.636 63.5292 275.582 63.3942 275.522 63.2682C275.462 63.1422 275.387 63.0342 275.297 62.9442C275.207 62.8542 275.099 62.7822 274.973 62.7282C274.853 62.6742 274.703 62.6472 274.523 62.6472C274.079 62.6472 273.755 62.8182 273.551 63.1602C273.347 63.4962 273.245 63.9522 273.245 64.5282V65.5902C273.245 66.1662 273.347 66.6252 273.551 66.9672C273.755 67.3032 274.079 67.4712 274.523 67.4712C274.703 67.4712 274.853 67.4442 274.973 67.3902C275.099 67.3362 275.207 67.2642 275.297 67.1742C275.387 67.0842 275.462 66.9762 275.522 66.8502C275.582 66.7242 275.636 66.5892 275.684 66.4452L276.593 66.7512C276.521 66.9672 276.428 67.1712 276.314 67.3632C276.206 67.5492 276.071 67.7142 275.909 67.8582C275.747 67.9962 275.552 68.1072 275.324 68.1912C275.102 68.2692 274.838 68.3082 274.532 68.3082ZM286.045 68.3082C285.247 68.3082 284.653 68.0262 284.263 67.4622C283.879 66.8982 283.687 66.0972 283.687 65.0592C283.687 64.0212 283.879 63.2202 284.263 62.6562C284.653 62.0922 285.247 61.8102 286.045 61.8102C286.351 61.8102 286.615 61.8522 286.837 61.9362C287.065 62.0142 287.26 62.1252 287.422 62.2692C287.584 62.4072 287.719 62.5722 287.827 62.7642C287.941 62.9502 288.034 63.1512 288.106 63.3672L287.197 63.6732C287.149 63.5292 287.095 63.3942 287.035 63.2682C286.975 63.1422 286.9 63.0342 286.81 62.9442C286.72 62.8542 286.612 62.7822 286.486 62.7282C286.366 62.6742 286.216 62.6472 286.036 62.6472C285.592 62.6472 285.268 62.8182 285.064 63.1602C284.86 63.4962 284.758 63.9522 284.758 64.5282V65.5902C284.758 66.1662 284.86 66.6252 285.064 66.9672C285.268 67.3032 285.592 67.4712 286.036 67.4712C286.216 67.4712 286.366 67.4442 286.486 67.3902C286.612 67.3362 286.72 67.2642 286.81 67.1742C286.9 67.0842 286.975 66.9762 287.035 66.8502C287.095 66.7242 287.149 66.5892 287.197 66.4452L288.106 66.7512C288.034 66.9672 287.941 67.1712 287.827 67.3632C287.719 67.5492 287.584 67.7142 287.422 67.8582C287.26 67.9962 287.065 68.1072 286.837 68.1912C286.615 68.2692 286.351 68.3082 286.045 68.3082ZM293.079 68.2002L292.602 66.5262H290.604L290.127 68.2002H289.101L290.937 61.9182H292.314L294.15 68.2002H293.079ZM291.639 62.9352H291.567L290.793 65.6892H292.413L291.639 62.9352ZM297.558 68.3082C296.76 68.3082 296.166 68.0262 295.776 67.4622C295.392 66.8982 295.2 66.0972 295.2 65.0592C295.2 64.0212 295.392 63.2202 295.776 62.6562C296.166 62.0922 296.76 61.8102 297.558 61.8102C297.864 61.8102 298.128 61.8522 298.35 61.9362C298.578 62.0142 298.773 62.1252 298.935 62.2692C299.097 62.4072 299.232 62.5722 299.34 62.7642C299.454 62.9502 299.547 63.1512 299.619 63.3672L298.71 63.6732C298.662 63.5292 298.608 63.3942 298.548 63.2682C298.488 63.1422 298.413 63.0342 298.323 62.9442C298.233 62.8542 298.125 62.7822 297.999 62.7282C297.879 62.6742 297.729 62.6472 297.549 62.6472C297.105 62.6472 296.781 62.8182 296.577 63.1602C296.373 63.4962 296.271 63.9522 296.271 64.5282V65.5902C296.271 66.1662 296.373 66.6252 296.577 66.9672C296.781 67.3032 297.105 67.4712 297.549 67.4712C297.729 67.4712 297.879 67.4442 297.999 67.3902C298.125 67.3362 298.233 67.2642 298.323 67.1742C298.413 67.0842 298.488 66.9762 298.548 66.8502C298.608 66.7242 298.662 66.5892 298.71 66.4452L299.619 66.7512C299.547 66.9672 299.454 67.1712 299.34 67.3632C299.232 67.5492 299.097 67.7142 298.935 67.8582C298.773 67.9962 298.578 68.1072 298.35 68.1912C298.128 68.2692 297.864 68.3082 297.558 68.3082ZM304.178 65.4372H302.09V68.2002H301.082V61.9182H302.09V64.5912H304.178V61.9182H305.186V68.2002H304.178V65.4372ZM306.911 68.2002V67.4352H308.387V62.6832H306.911V61.9182H310.871V62.6832H309.395V67.4352H310.871V68.2002H306.911ZM313.558 63.3672H313.477V68.2002H312.595V61.9182H313.891L315.736 66.7512H315.817V61.9182H316.699V68.2002H315.403L313.558 63.3672ZM321.574 67.3362H321.511C321.457 67.4622 321.391 67.5852 321.313 67.7052C321.241 67.8192 321.148 67.9212 321.034 68.0112C320.926 68.1012 320.794 68.1732 320.638 68.2272C320.482 68.2812 320.302 68.3082 320.098 68.3082C319.444 68.3082 318.952 68.0292 318.622 67.4712C318.292 66.9132 318.127 66.1242 318.127 65.1042C318.127 64.0362 318.316 63.2202 318.694 62.6562C319.072 62.0922 319.651 61.8102 320.431 61.8102C320.737 61.8102 321.004 61.8522 321.232 61.9362C321.466 62.0202 321.664 62.1342 321.826 62.2782C321.988 62.4162 322.123 62.5812 322.231 62.7732C322.339 62.9592 322.426 63.1572 322.492 63.3672L321.583 63.6732C321.535 63.5352 321.481 63.4062 321.421 63.2862C321.361 63.1602 321.286 63.0492 321.196 62.9532C321.112 62.8572 321.007 62.7822 320.881 62.7282C320.761 62.6742 320.614 62.6472 320.44 62.6472C320.002 62.6472 319.684 62.8182 319.486 63.1602C319.294 63.4962 319.198 63.9522 319.198 64.5282V65.5272C319.198 65.8152 319.219 66.0792 319.261 66.3192C319.303 66.5592 319.372 66.7662 319.468 66.9402C319.57 67.1082 319.699 67.2402 319.855 67.3362C320.017 67.4322 320.212 67.4802 320.44 67.4802C320.806 67.4802 321.085 67.3722 321.277 67.1562C321.475 66.9342 321.574 66.6522 321.574 66.3102V65.7432H320.359V64.9872H322.492V68.2002H321.574V67.3362Z" fill="#38383A"/>
<rect x="45.9" y="88.3999" width="156" height="40" rx="8" fill="#E5E5E5" fill-opacity="0.4"/>
<rect x="49.9" y="92.3999" width="32" height="32" rx="6.4" fill="#8D2676"/>
<rect x="49.9" y="92.3999" width="32" height="32" rx="6.4" fill="url(#paint4_linear_1387_2022)" fill-opacity="0.3"/>
<rect x="50.4" y="92.8999" width="31" height="31" rx="5.9" stroke="black" stroke-opacity="0.1"/>
<g clip-path="url(#clip1_1387_2022)">
<path d="M66.2908 109.288C67.7404 113.233 67.3272 116.659 65.1477 117.319C62.6604 118.072 58.8147 114.938 56.558 110.319C54.3013 105.7 54.4882 101.345 56.9755 100.592C59.0043 99.9778 61.9369 101.95 64.1737 105.204" stroke="white" stroke-width="0.8" stroke-linecap="round"/>
<path d="M62.9548 106.242C61.4474 103.825 59.6271 102.27 58.5348 102.603C57.2195 103.003 57.4577 105.988 59.0668 109.27C60.676 112.553 63.0467 114.889 64.362 114.489C65.3797 114.179 65.4674 112.322 64.7095 109.977" stroke="white" stroke-width="0.8" stroke-linecap="round"/>
<ellipse cx="0.82978" cy="2.52528" rx="0.82978" ry="2.52528" transform="matrix(0.962843 -0.270061 0.420444 0.907318 59.8265 106.512)" fill="white"/>
<path fill-rule="evenodd" clip-rule="evenodd" d="M73.8219 101.735L73.8347 101.632L73.8839 101.237L71.9927 102.329L71.9307 102.827L73.8219 101.735ZM66.1439 107.077L71.4296 104.007L71.4621 104.021L72.848 104.606L75.6079 103.013L76.4766 102.512L75.5526 102.121L74.6286 101.731L74.7526 100.736L74.8766 99.7403L74.0079 100.242L71.248 101.835L71.0664 103.293L65.7026 106.408L65.8371 105.447C65.8597 105.285 65.6538 105.198 65.5528 105.326L63.503 107.933C63.4138 108.047 63.5086 108.211 63.6515 108.19L66.9344 107.719C67.0962 107.696 67.1232 107.474 66.9717 107.412L66.1439 107.077ZM72.3307 103.52L74.2219 102.428L74.3173 102.468L74.6839 102.623L72.7927 103.715L72.3307 103.52Z" fill="white"/>
</g>
<path d="M92.546 111.508C92 111.508 91.541 111.412 91.169 111.22C90.797 111.028 90.491 110.773 90.251 110.455L90.899 109.834C91.139 110.122 91.394 110.335 91.664 110.473C91.934 110.605 92.24 110.671 92.582 110.671C92.978 110.671 93.281 110.581 93.491 110.401C93.707 110.221 93.815 109.963 93.815 109.627C93.815 109.357 93.737 109.15 93.581 109.006C93.425 108.856 93.158 108.748 92.78 108.682L92.096 108.574C91.796 108.526 91.544 108.448 91.34 108.34C91.136 108.226 90.971 108.094 90.845 107.944C90.719 107.788 90.626 107.617 90.566 107.431C90.512 107.239 90.485 107.038 90.485 106.828C90.485 106.234 90.677 105.784 91.061 105.478C91.445 105.166 91.973 105.01 92.645 105.01C93.143 105.01 93.566 105.091 93.914 105.253C94.268 105.409 94.553 105.631 94.769 105.919L94.139 106.549C93.965 106.339 93.758 106.171 93.518 106.045C93.284 105.913 92.993 105.847 92.645 105.847C92.273 105.847 91.988 105.928 91.79 106.09C91.598 106.246 91.502 106.477 91.502 106.783C91.502 107.041 91.577 107.245 91.727 107.395C91.883 107.539 92.156 107.644 92.546 107.71L93.212 107.827C93.776 107.929 94.187 108.136 94.445 108.448C94.703 108.754 94.832 109.129 94.832 109.573C94.832 109.861 94.781 110.125 94.679 110.365C94.583 110.605 94.436 110.809 94.238 110.977C94.046 111.145 93.806 111.277 93.518 111.373C93.236 111.463 92.912 111.508 92.546 111.508ZM98.8605 105.964V111.4H97.8525V105.964H95.8815V105.118H100.831V105.964H98.8605ZM103.168 111.4H102.169V105.118H104.518C105.118 105.118 105.574 105.286 105.886 105.622C106.204 105.958 106.363 106.42 106.363 107.008C106.363 107.488 106.246 107.884 106.012 108.196C105.778 108.508 105.442 108.7 105.004 108.772L106.453 111.4H105.337L104.005 108.862H103.168V111.4ZM104.374 108.052C104.998 108.052 105.31 107.767 105.31 107.197V106.81C105.31 106.24 104.998 105.955 104.374 105.955H103.168V108.052H104.374ZM109.869 111.508C109.473 111.508 109.128 111.436 108.834 111.292C108.546 111.142 108.306 110.929 108.114 110.653C107.928 110.377 107.79 110.038 107.7 109.636C107.61 109.234 107.565 108.775 107.565 108.259C107.565 107.749 107.61 107.293 107.7 106.891C107.79 106.483 107.928 106.141 108.114 105.865C108.306 105.589 108.546 105.379 108.834 105.235C109.128 105.085 109.473 105.01 109.869 105.01C110.265 105.01 110.607 105.085 110.895 105.235C111.189 105.379 111.429 105.589 111.615 105.865C111.807 106.141 111.948 106.483 112.038 106.891C112.128 107.293 112.173 107.749 112.173 108.259C112.173 108.775 112.128 109.234 112.038 109.636C111.948 110.038 111.807 110.377 111.615 110.653C111.429 110.929 111.189 111.142 110.895 111.292C110.607 111.436 110.265 111.508 109.869 111.508ZM109.869 110.671C110.319 110.671 110.637 110.503 110.823 110.167C111.009 109.825 111.102 109.363 111.102 108.781V107.728C111.102 107.152 111.009 106.696 110.823 106.36C110.637 106.018 110.319 105.847 109.869 105.847C109.419 105.847 109.101 106.018 108.915 106.36C108.729 106.696 108.636 107.152 108.636 107.728V108.79C108.636 109.366 108.729 109.825 108.915 110.167C109.101 110.503 109.419 110.671 109.869 110.671ZM114.537 106.567H114.456V111.4H113.574V105.118H114.87L116.715 109.951H116.796V105.118H117.678V111.4H116.382L114.537 106.567ZM122.552 110.536H122.489C122.435 110.662 122.369 110.785 122.291 110.905C122.219 111.019 122.126 111.121 122.012 111.211C121.904 111.301 121.772 111.373 121.616 111.427C121.46 111.481 121.28 111.508 121.076 111.508C120.422 111.508 119.93 111.229 119.6 110.671C119.27 110.113 119.105 109.324 119.105 108.304C119.105 107.236 119.294 106.42 119.672 105.856C120.05 105.292 120.629 105.01 121.409 105.01C121.715 105.01 121.982 105.052 122.21 105.136C122.444 105.22 122.642 105.334 122.804 105.478C122.966 105.616 123.101 105.781 123.209 105.973C123.317 106.159 123.404 106.357 123.47 106.567L122.561 106.873C122.513 106.735 122.459 106.606 122.399 106.486C122.339 106.36 122.264 106.249 122.174 106.153C122.09 106.057 121.985 105.982 121.859 105.928C121.739 105.874 121.592 105.847 121.418 105.847C120.98 105.847 120.662 106.018 120.464 106.36C120.272 106.696 120.176 107.152 120.176 107.728V108.727C120.176 109.015 120.197 109.279 120.239 109.519C120.281 109.759 120.35 109.966 120.446 110.14C120.548 110.308 120.677 110.44 120.833 110.536C120.995 110.632 121.19 110.68 121.418 110.68C121.784 110.68 122.063 110.572 122.255 110.356C122.453 110.134 122.552 109.852 122.552 109.51V108.943H121.337V108.187H123.47V111.4H122.552V110.536ZM133.075 111.508C132.277 111.508 131.683 111.226 131.293 110.662C130.909 110.098 130.717 109.297 130.717 108.259C130.717 107.221 130.909 106.42 131.293 105.856C131.683 105.292 132.277 105.01 133.075 105.01C133.381 105.01 133.645 105.052 133.867 105.136C134.095 105.214 134.29 105.325 134.452 105.469C134.614 105.607 134.749 105.772 134.857 105.964C134.971 106.15 135.064 106.351 135.136 106.567L134.227 106.873C134.179 106.729 134.125 106.594 134.065 106.468C134.005 106.342 133.93 106.234 133.84 106.144C133.75 106.054 133.642 105.982 133.516 105.928C133.396 105.874 133.246 105.847 133.066 105.847C132.622 105.847 132.298 106.018 132.094 106.36C131.89 106.696 131.788 107.152 131.788 107.728V108.79C131.788 109.366 131.89 109.825 132.094 110.167C132.298 110.503 132.622 110.671 133.066 110.671C133.246 110.671 133.396 110.644 133.516 110.59C133.642 110.536 133.75 110.464 133.84 110.374C133.93 110.284 134.005 110.176 134.065 110.05C134.125 109.924 134.179 109.789 134.227 109.645L135.136 109.951C135.064 110.167 134.971 110.371 134.857 110.563C134.749 110.749 134.614 110.914 134.452 111.058C134.29 111.196 134.095 111.307 133.867 111.391C133.645 111.469 133.381 111.508 133.075 111.508ZM138.652 111.508C138.256 111.508 137.911 111.436 137.617 111.292C137.329 111.142 137.089 110.929 136.897 110.653C136.711 110.377 136.573 110.038 136.483 109.636C136.393 109.234 136.348 108.775 136.348 108.259C136.348 107.749 136.393 107.293 136.483 106.891C136.573 106.483 136.711 106.141 136.897 105.865C137.089 105.589 137.329 105.379 137.617 105.235C137.911 105.085 138.256 105.01 138.652 105.01C139.048 105.01 139.39 105.085 139.678 105.235C139.972 105.379 140.212 105.589 140.398 105.865C140.59 106.141 140.731 106.483 140.821 106.891C140.911 107.293 140.956 107.749 140.956 108.259C140.956 108.775 140.911 109.234 140.821 109.636C140.731 110.038 140.59 110.377 140.398 110.653C140.212 110.929 139.972 111.142 139.678 111.292C139.39 111.436 139.048 111.508 138.652 111.508ZM138.652 110.671C139.102 110.671 139.42 110.503 139.606 110.167C139.792 109.825 139.885 109.363 139.885 108.781V107.728C139.885 107.152 139.792 106.696 139.606 106.36C139.42 106.018 139.102 105.847 138.652 105.847C138.202 105.847 137.884 106.018 137.698 106.36C137.512 106.696 137.419 107.152 137.419 107.728V108.79C137.419 109.366 137.512 109.825 137.698 110.167C137.884 110.503 138.202 110.671 138.652 110.671ZM143.319 106.567H143.238V111.4H142.356V105.118H143.652L145.497 109.951H145.578V105.118H146.46V111.4H145.164L143.319 106.567ZM150.111 111.508C149.565 111.508 149.106 111.412 148.734 111.22C148.362 111.028 148.056 110.773 147.816 110.455L148.464 109.834C148.704 110.122 148.959 110.335 149.229 110.473C149.499 110.605 149.805 110.671 150.147 110.671C150.543 110.671 150.846 110.581 151.056 110.401C151.272 110.221 151.38 109.963 151.38 109.627C151.38 109.357 151.302 109.15 151.146 109.006C150.99 108.856 150.723 108.748 150.345 108.682L149.661 108.574C149.361 108.526 149.109 108.448 148.905 108.34C148.701 108.226 148.536 108.094 148.41 107.944C148.284 107.788 148.191 107.617 148.131 107.431C148.077 107.239 148.05 107.038 148.05 106.828C148.05 106.234 148.242 105.784 148.626 105.478C149.01 105.166 149.538 105.01 150.21 105.01C150.708 105.01 151.131 105.091 151.479 105.253C151.833 105.409 152.118 105.631 152.334 105.919L151.704 106.549C151.53 106.339 151.323 106.171 151.083 106.045C150.849 105.913 150.558 105.847 150.21 105.847C149.838 105.847 149.553 105.928 149.355 106.09C149.163 106.246 149.067 106.477 149.067 106.783C149.067 107.041 149.142 107.245 149.292 107.395C149.448 107.539 149.721 107.644 150.111 107.71L150.777 107.827C151.341 107.929 151.752 108.136 152.01 108.448C152.268 108.754 152.397 109.129 152.397 109.573C152.397 109.861 152.346 110.125 152.244 110.365C152.148 110.605 152.001 110.809 151.803 110.977C151.611 111.145 151.371 111.277 151.083 111.373C150.801 111.463 150.477 111.508 150.111 111.508ZM153.941 111.4V110.635H155.417V105.883H153.941V105.118H157.901V105.883H156.425V110.635H157.901V111.4H153.941ZM161.624 111.508C161.078 111.508 160.619 111.412 160.247 111.22C159.875 111.028 159.569 110.773 159.329 110.455L159.977 109.834C160.217 110.122 160.472 110.335 160.742 110.473C161.012 110.605 161.318 110.671 161.66 110.671C162.056 110.671 162.359 110.581 162.569 110.401C162.785 110.221 162.893 109.963 162.893 109.627C162.893 109.357 162.815 109.15 162.659 109.006C162.503 108.856 162.236 108.748 161.858 108.682L161.174 108.574C160.874 108.526 160.622 108.448 160.418 108.34C160.214 108.226 160.049 108.094 159.923 107.944C159.797 107.788 159.704 107.617 159.644 107.431C159.59 107.239 159.563 107.038 159.563 106.828C159.563 106.234 159.755 105.784 160.139 105.478C160.523 105.166 161.051 105.01 161.723 105.01C162.221 105.01 162.644 105.091 162.992 105.253C163.346 105.409 163.631 105.631 163.847 105.919L163.217 106.549C163.043 106.339 162.836 106.171 162.596 106.045C162.362 105.913 162.071 105.847 161.723 105.847C161.351 105.847 161.066 105.928 160.868 106.09C160.676 106.246 160.58 106.477 160.58 106.783C160.58 107.041 160.655 107.245 160.805 107.395C160.961 107.539 161.234 107.644 161.624 107.71L162.29 107.827C162.854 107.929 163.265 108.136 163.523 108.448C163.781 108.754 163.91 109.129 163.91 109.573C163.91 109.861 163.859 110.125 163.757 110.365C163.661 110.605 163.514 110.809 163.316 110.977C163.124 111.145 162.884 111.277 162.596 111.373C162.314 111.463 161.99 111.508 161.624 111.508ZM167.938 105.964V111.4H166.93V105.964H164.959V105.118H169.909V105.964H167.938ZM171.265 111.4V105.118H175.198V105.964H172.273V107.791H175.09V108.637H172.273V110.554H175.198V111.4H171.265ZM177.858 106.567H177.777V111.4H176.895V105.118H178.191L180.036 109.951H180.117V105.118H180.999V111.4H179.703L177.858 106.567ZM184.884 111.508C184.086 111.508 183.492 111.226 183.102 110.662C182.718 110.098 182.526 109.297 182.526 108.259C182.526 107.221 182.718 106.42 183.102 105.856C183.492 105.292 184.086 105.01 184.884 105.01C185.19 105.01 185.454 105.052 185.676 105.136C185.904 105.214 186.099 105.325 186.261 105.469C186.423 105.607 186.558 105.772 186.666 105.964C186.78 106.15 186.873 106.351 186.945 106.567L186.036 106.873C185.988 106.729 185.934 106.594 185.874 106.468C185.814 106.342 185.739 106.234 185.649 106.144C185.559 106.054 185.451 105.982 185.325 105.928C185.205 105.874 185.055 105.847 184.875 105.847C184.431 105.847 184.107 106.018 183.903 106.36C183.699 106.696 183.597 107.152 183.597 107.728V108.79C183.597 109.366 183.699 109.825 183.903 110.167C184.107 110.503 184.431 110.671 184.875 110.671C185.055 110.671 185.205 110.644 185.325 110.59C185.451 110.536 185.559 110.464 185.649 110.374C185.739 110.284 185.814 110.176 185.874 110.05C185.934 109.924 185.988 109.789 186.036 109.645L186.945 109.951C186.873 110.167 186.78 110.371 186.666 110.563C186.558 110.749 186.423 110.914 186.261 111.058C186.099 111.196 185.904 111.307 185.676 111.391C185.454 111.469 185.19 111.508 184.884 111.508ZM189.956 111.4V109.033L187.868 105.118H188.993L189.794 106.684L190.442 108.025H190.496L191.153 106.684L191.954 105.118H193.052L190.964 109.033V111.4H189.956Z" fill="#38383A"/>
<rect x="205.1" y="88.3999" width="144" height="40" rx="8" fill="#E5E5E5" fill-opacity="0.4"/>
<rect x="209.1" y="92.3999" width="32" height="32" rx="6.4" fill="#292929"/>
<rect x="209.1" y="92.3999" width="32" height="32" rx="6.4" fill="url(#paint5_linear_1387_2022)" fill-opacity="0.3"/>
<rect x="209.6" y="92.8999" width="31" height="31" rx="5.9" stroke="black" stroke-opacity="0.1"/>
<path fill-rule="evenodd" clip-rule="evenodd" d="M233.624 100.071L232.481 101.71C232.487 101.749 232.49 101.789 232.49 101.83V114.888C232.49 114.973 232.477 115.055 232.452 115.132L233.848 117.133C233.92 117.013 233.961 116.873 233.961 116.723V100.723C233.961 100.454 233.828 100.216 233.624 100.071ZM231.95 101.073L232.752 99.923H217.57L218.372 101.073C218.454 101.045 218.541 101.03 218.632 101.03H231.69C231.781 101.03 231.868 101.045 231.95 101.073ZM217.841 101.71C217.835 101.749 217.832 101.789 217.832 101.83V114.888C217.832 114.973 217.845 115.055 217.87 115.132L216.474 117.133C216.402 117.013 216.361 116.873 216.361 116.723V100.723C216.361 100.454 216.494 100.216 216.698 100.071L217.841 101.71ZM217.001 99.131C216.192 99.2113 215.561 99.8934 215.561 100.723V116.723C215.561 117.607 216.277 118.323 217.161 118.323H233.161C234.045 118.323 234.761 117.607 234.761 116.723V100.723C234.761 99.8935 234.13 99.2113 233.321 99.131L233.31 99.123L233.305 99.1295C233.258 99.1252 233.21 99.123 233.161 99.123H217.161C217.112 99.123 217.064 99.1252 217.017 99.1295L217.012 99.123L217.001 99.131ZM233.144 117.523H217.178L218.469 115.671C218.522 115.682 218.576 115.688 218.632 115.688H231.69C231.746 115.688 231.8 115.682 231.853 115.671L233.144 117.523ZM218.632 101.83H231.69V114.888L218.632 114.888V101.83Z" fill="white"/>
<path d="M222.08 105.2H223.673L224.702 107.244M228.341 110.642L226.894 111.6L224.702 107.244M224.702 107.244L221.859 111.6" stroke="white" stroke-width="0.8" stroke-linecap="round" stroke-linejoin="round"/>
<path d="M251.746 111.508C251.2 111.508 250.741 111.412 250.369 111.22C249.997 111.028 249.691 110.773 249.451 110.455L250.099 109.834C250.339 110.122 250.594 110.335 250.864 110.473C251.134 110.605 251.44 110.671 251.782 110.671C252.178 110.671 252.481 110.581 252.691 110.401C252.907 110.221 253.015 109.963 253.015 109.627C253.015 109.357 252.937 109.15 252.781 109.006C252.625 108.856 252.358 108.748 251.98 108.682L251.296 108.574C250.996 108.526 250.744 108.448 250.54 108.34C250.336 108.226 250.171 108.094 250.045 107.944C249.919 107.788 249.826 107.617 249.766 107.431C249.712 107.239 249.685 107.038 249.685 106.828C249.685 106.234 249.877 105.784 250.261 105.478C250.645 105.166 251.173 105.01 251.845 105.01C252.343 105.01 252.766 105.091 253.114 105.253C253.468 105.409 253.753 105.631 253.969 105.919L253.339 106.549C253.165 106.339 252.958 106.171 252.718 106.045C252.484 105.913 252.193 105.847 251.845 105.847C251.473 105.847 251.188 105.928 250.99 106.09C250.798 106.246 250.702 106.477 250.702 106.783C250.702 107.041 250.777 107.245 250.927 107.395C251.083 107.539 251.356 107.644 251.746 107.71L252.412 107.827C252.976 107.929 253.387 108.136 253.645 108.448C253.903 108.754 254.032 109.129 254.032 109.573C254.032 109.861 253.981 110.125 253.879 110.365C253.783 110.605 253.636 110.809 253.438 110.977C253.246 111.145 253.006 111.277 252.718 111.373C252.436 111.463 252.112 111.508 251.746 111.508ZM255.63 111.4V105.118H259.563V105.964H256.638V107.791H259.455V108.637H256.638V110.554H259.563V111.4H255.63ZM262.368 111.4H261.369V105.118H263.718C264.318 105.118 264.774 105.286 265.086 105.622C265.404 105.958 265.563 106.42 265.563 107.008C265.563 107.488 265.446 107.884 265.212 108.196C264.978 108.508 264.642 108.7 264.204 108.772L265.653 111.4H264.537L263.205 108.862H262.368V111.4ZM263.574 108.052C264.198 108.052 264.51 107.767 264.51 107.197V106.81C264.51 106.24 264.198 105.955 263.574 105.955H262.368V108.052H263.574ZM268.367 111.4L266.594 105.118H267.683L268.511 108.286L269.06 110.419H269.114L269.663 108.286L270.5 105.118H271.544L269.771 111.4H268.367ZM272.9 111.4V105.118H276.833V105.964H273.908V107.791H276.725V108.637H273.908V110.554H276.833V111.4H272.9ZM279.637 111.4H278.638V105.118H280.987C281.587 105.118 282.043 105.286 282.355 105.622C282.673 105.958 282.832 106.42 282.832 107.008C282.832 107.488 282.715 107.884 282.481 108.196C282.247 108.508 281.911 108.7 281.473 108.772L282.922 111.4H281.806L280.474 108.862H279.637V111.4ZM280.843 108.052C281.467 108.052 281.779 107.767 281.779 107.197V106.81C281.779 106.24 281.467 105.955 280.843 105.955H279.637V108.052H280.843ZM290.169 111.4V105.118H294.21V105.964H291.177V107.791H293.931V108.637H291.177V111.4H290.169ZM296.781 105.118V108.979C296.781 109.237 296.787 109.471 296.799 109.681C296.817 109.891 296.862 110.071 296.934 110.221C297.006 110.365 297.114 110.476 297.258 110.554C297.402 110.632 297.6 110.671 297.852 110.671C298.104 110.671 298.302 110.632 298.446 110.554C298.59 110.476 298.698 110.365 298.77 110.221C298.842 110.071 298.884 109.891 298.896 109.681C298.914 109.471 298.923 109.237 298.923 108.979V105.118H299.931V108.799C299.931 109.249 299.904 109.645 299.85 109.987C299.802 110.323 299.703 110.605 299.553 110.833C299.403 111.055 299.19 111.223 298.914 111.337C298.644 111.451 298.29 111.508 297.852 111.508C297.414 111.508 297.057 111.451 296.781 111.337C296.511 111.223 296.301 111.055 296.151 110.833C296.001 110.605 295.899 110.323 295.845 109.987C295.797 109.645 295.773 109.249 295.773 108.799V105.118H296.781ZM302.519 106.567H302.438V111.4H301.556V105.118H302.852L304.697 109.951H304.778V105.118H305.66V111.4H304.364L302.519 106.567ZM309.545 111.508C308.747 111.508 308.153 111.226 307.763 110.662C307.379 110.098 307.187 109.297 307.187 108.259C307.187 107.221 307.379 106.42 307.763 105.856C308.153 105.292 308.747 105.01 309.545 105.01C309.851 105.01 310.115 105.052 310.337 105.136C310.565 105.214 310.76 105.325 310.922 105.469C311.084 105.607 311.219 105.772 311.327 105.964C311.441 106.15 311.534 106.351 311.606 106.567L310.697 106.873C310.649 106.729 310.595 106.594 310.535 106.468C310.475 106.342 310.4 106.234 310.31 106.144C310.22 106.054 310.112 105.982 309.986 105.928C309.866 105.874 309.716 105.847 309.536 105.847C309.092 105.847 308.768 106.018 308.564 106.36C308.36 106.696 308.258 107.152 308.258 107.728V108.79C308.258 109.366 308.36 109.825 308.564 110.167C308.768 110.503 309.092 110.671 309.536 110.671C309.716 110.671 309.866 110.644 309.986 110.59C310.112 110.536 310.22 110.464 310.31 110.374C310.4 110.284 310.475 110.176 310.535 110.05C310.595 109.924 310.649 109.789 310.697 109.645L311.606 109.951C311.534 110.167 311.441 110.371 311.327 110.563C311.219 110.749 311.084 110.914 310.922 111.058C310.76 111.196 310.565 111.307 310.337 111.391C310.115 111.469 309.851 111.508 309.545 111.508ZM315.625 105.964V111.4H314.617V105.964H312.646V105.118H317.596V105.964H315.625ZM318.898 111.4V110.635H320.374V105.883H318.898V105.118H322.858V105.883H321.382V110.635H322.858V111.4H318.898ZM326.634 111.508C326.238 111.508 325.893 111.436 325.599 111.292C325.311 111.142 325.071 110.929 324.879 110.653C324.693 110.377 324.555 110.038 324.465 109.636C324.375 109.234 324.33 108.775 324.33 108.259C324.33 107.749 324.375 107.293 324.465 106.891C324.555 106.483 324.693 106.141 324.879 105.865C325.071 105.589 325.311 105.379 325.599 105.235C325.893 105.085 326.238 105.01 326.634 105.01C327.03 105.01 327.372 105.085 327.66 105.235C327.954 105.379 328.194 105.589 328.38 105.865C328.572 106.141 328.713 106.483 328.803 106.891C328.893 107.293 328.938 107.749 328.938 108.259C328.938 108.775 328.893 109.234 328.803 109.636C328.713 110.038 328.572 110.377 328.38 110.653C328.194 110.929 327.954 111.142 327.66 111.292C327.372 111.436 327.03 111.508 326.634 111.508ZM326.634 110.671C327.084 110.671 327.402 110.503 327.588 110.167C327.774 109.825 327.867 109.363 327.867 108.781V107.728C327.867 107.152 327.774 106.696 327.588 106.36C327.402 106.018 327.084 105.847 326.634 105.847C326.184 105.847 325.866 106.018 325.68 106.36C325.494 106.696 325.401 107.152 325.401 107.728V108.79C325.401 109.366 325.494 109.825 325.68 110.167C325.866 110.503 326.184 110.671 326.634 110.671ZM331.302 106.567H331.221V111.4H330.339V105.118H331.635L333.48 109.951H333.561V105.118H334.443V111.4H333.147L331.302 106.567ZM338.093 111.508C337.547 111.508 337.088 111.412 336.716 111.22C336.344 111.028 336.038 110.773 335.798 110.455L336.446 109.834C336.686 110.122 336.941 110.335 337.211 110.473C337.481 110.605 337.787 110.671 338.129 110.671C338.525 110.671 338.828 110.581 339.038 110.401C339.254 110.221 339.362 109.963 339.362 109.627C339.362 109.357 339.284 109.15 339.128 109.006C338.972 108.856 338.705 108.748 338.327 108.682L337.643 108.574C337.343 108.526 337.091 108.448 336.887 108.34C336.683 108.226 336.518 108.094 336.392 107.944C336.266 107.788 336.173 107.617 336.113 107.431C336.059 107.239 336.032 107.038 336.032 106.828C336.032 106.234 336.224 105.784 336.608 105.478C336.992 105.166 337.52 105.01 338.192 105.01C338.69 105.01 339.113 105.091 339.461 105.253C339.815 105.409 340.1 105.631 340.316 105.919L339.686 106.549C339.512 106.339 339.305 106.171 339.065 106.045C338.831 105.913 338.54 105.847 338.192 105.847C337.82 105.847 337.535 105.928 337.337 106.09C337.145 106.246 337.049 106.477 337.049 106.783C337.049 107.041 337.124 107.245 337.274 107.395C337.43 107.539 337.703 107.644 338.093 107.71L338.759 107.827C339.323 107.929 339.734 108.136 339.992 108.448C340.25 108.754 340.379 109.129 340.379 109.573C340.379 109.861 340.328 110.125 340.226 110.365C340.13 110.605 339.983 110.809 339.785 110.977C339.593 111.145 339.353 111.277 339.065 111.373C338.783 111.463 338.459 111.508 338.093 111.508Z" fill="#38383A"/>
<rect x="18.3" y="131.6" width="104" height="40" rx="8" fill="#E5E5E5" fill-opacity="0.4"/>
<rect x="22.3" y="135.6" width="32" height="32" rx="6.4" fill="#292929"/>
<rect x="22.3" y="135.6" width="32" height="32" rx="6.4" fill="url(#paint6_linear_1387_2022)" fill-opacity="0.3"/>
<rect x="22.8" y="136.1" width="31" height="31" rx="5.9" stroke="black" stroke-opacity="0.1"/>
<g clip-path="url(#clip2_1387_2022)">
<path d="M28.6252 147.175H47.9834" stroke="white" stroke-width="0.8" stroke-linecap="round"/>
<path d="M30.4066 150.8H33.5449" stroke="white" stroke-width="0.8" stroke-linecap="round"/>
<path d="M30.4066 153.2H33.5449" stroke="white" stroke-width="0.8" stroke-linecap="round"/>
<path d="M30.4066 155.6H33.5449" stroke="white" stroke-width="0.8" stroke-linecap="round"/>
<path d="M30.4066 158H33.5449" stroke="white" stroke-width="0.8" stroke-linecap="round"/>
<path d="M36.7449 150.8H39.8832" stroke="white" stroke-width="0.8" stroke-linecap="round"/>
<path d="M36.7449 153.2H39.8832" stroke="white" stroke-width="0.8" stroke-linecap="round"/>
<path d="M36.7449 155.6H39.8832" stroke="white" stroke-width="0.8" stroke-linecap="round"/>
<path d="M36.7449 158H39.8832" stroke="white" stroke-width="0.8" stroke-linecap="round"/>
<path d="M43.0832 150.8H46.2215" stroke="white" stroke-width="0.8" stroke-linecap="round"/>
<path d="M43.0832 153.2H46.2215" stroke="white" stroke-width="0.8" stroke-linecap="round"/>
<path d="M43.0832 155.6H46.2215" stroke="white" stroke-width="0.8" stroke-linecap="round"/>
<path d="M43.0832 158H46.2215" stroke="white" stroke-width="0.8" stroke-linecap="round"/>
<path d="M31.5076 144.247L31.5076 141.847" stroke="white" stroke-width="0.8" stroke-linecap="round"/>
<path d="M45.1425 144.247L45.1425 141.847" stroke="white" stroke-width="0.8" stroke-linecap="round"/>
<rect x="28.3003" y="143.072" width="20.0275" height="18.4" rx="0.4" stroke="white" stroke-width="0.8"/>
</g>
<path d="M65.18 154.708C64.382 154.708 63.788 154.426 63.398 153.862C63.014 153.298 62.822 152.497 62.822 151.459C62.822 150.421 63.014 149.62 63.398 149.056C63.788 148.492 64.382 148.21 65.18 148.21C65.486 148.21 65.75 148.252 65.972 148.336C66.2 148.414 66.395 148.525 66.557 148.669C66.719 148.807 66.854 148.972 66.962 149.164C67.076 149.35 67.169 149.551 67.241 149.767L66.332 150.073C66.284 149.929 66.23 149.794 66.17 149.668C66.11 149.542 66.035 149.434 65.945 149.344C65.855 149.254 65.747 149.182 65.621 149.128C65.501 149.074 65.351 149.047 65.171 149.047C64.727 149.047 64.403 149.218 64.199 149.56C63.995 149.896 63.893 150.352 63.893 150.928V151.99C63.893 152.566 63.995 153.025 64.199 153.367C64.403 153.703 64.727 153.871 65.171 153.871C65.351 153.871 65.501 153.844 65.621 153.79C65.747 153.736 65.855 153.664 65.945 153.574C66.035 153.484 66.11 153.376 66.17 153.25C66.23 153.124 66.284 152.989 66.332 152.845L67.241 153.151C67.169 153.367 67.076 153.571 66.962 153.763C66.854 153.949 66.719 154.114 66.557 154.258C66.395 154.396 66.2 154.507 65.972 154.591C65.75 154.669 65.486 154.708 65.18 154.708ZM69.8115 154.6H68.8125V148.318H71.1615C71.7615 148.318 72.2175 148.486 72.5295 148.822C72.8475 149.158 73.0065 149.62 73.0065 150.208C73.0065 150.688 72.8895 151.084 72.6555 151.396C72.4215 151.708 72.0855 151.9 71.6475 151.972L73.0965 154.6H71.9805L70.6485 152.062H69.8115V154.6ZM71.0175 151.252C71.6415 151.252 71.9535 150.967 71.9535 150.397V150.01C71.9535 149.44 71.6415 149.155 71.0175 149.155H69.8115V151.252H71.0175ZM76.513 154.708C76.117 154.708 75.772 154.636 75.478 154.492C75.19 154.342 74.95 154.129 74.758 153.853C74.572 153.577 74.434 153.238 74.344 152.836C74.254 152.434 74.209 151.975 74.209 151.459C74.209 150.949 74.254 150.493 74.344 150.091C74.434 149.683 74.572 149.341 74.758 149.065C74.95 148.789 75.19 148.579 75.478 148.435C75.772 148.285 76.117 148.21 76.513 148.21C76.909 148.21 77.251 148.285 77.539 148.435C77.833 148.579 78.073 148.789 78.259 149.065C78.451 149.341 78.592 149.683 78.682 150.091C78.772 150.493 78.817 150.949 78.817 151.459C78.817 151.975 78.772 152.434 78.682 152.836C78.592 153.238 78.451 153.577 78.259 153.853C78.073 154.129 77.833 154.342 77.539 154.492C77.251 154.636 76.909 154.708 76.513 154.708ZM76.513 153.871C76.963 153.871 77.281 153.703 77.467 153.367C77.653 153.025 77.746 152.563 77.746 151.981V150.928C77.746 150.352 77.653 149.896 77.467 149.56C77.281 149.218 76.963 149.047 76.513 149.047C76.063 149.047 75.745 149.218 75.559 149.56C75.373 149.896 75.28 150.352 75.28 150.928V151.99C75.28 152.566 75.373 153.025 75.559 153.367C75.745 153.703 76.063 153.871 76.513 153.871ZM81.1804 149.767H81.0994V154.6H80.2174V148.318H81.5134L83.3584 153.151H83.4394V148.318H84.3214V154.6H83.0254L81.1804 149.767ZM95.5194 148.318V152.917C95.5194 153.187 95.4714 153.433 95.3754 153.655C95.2854 153.877 95.1534 154.066 94.9794 154.222C94.8114 154.378 94.6074 154.498 94.3674 154.582C94.1274 154.666 93.8604 154.708 93.5664 154.708C93.0144 154.708 92.5734 154.57 92.2434 154.294C91.9194 154.018 91.7094 153.637 91.6134 153.151L92.5674 152.953C92.6214 153.211 92.7234 153.427 92.8734 153.601C93.0234 153.775 93.2574 153.862 93.5754 153.862C93.8694 153.862 94.0974 153.775 94.2594 153.601C94.4274 153.421 94.5114 153.148 94.5114 152.782V149.164H92.3244V148.318H95.5194ZM99.5389 154.708C99.1429 154.708 98.7979 154.636 98.5039 154.492C98.2159 154.342 97.9759 154.129 97.7839 153.853C97.5979 153.577 97.4599 153.238 97.3699 152.836C97.2799 152.434 97.2349 151.975 97.2349 151.459C97.2349 150.949 97.2799 150.493 97.3699 150.091C97.4599 149.683 97.5979 149.341 97.7839 149.065C97.9759 148.789 98.2159 148.579 98.5039 148.435C98.7979 148.285 99.1429 148.21 99.5389 148.21C99.9349 148.21 100.277 148.285 100.565 148.435C100.859 148.579 101.099 148.789 101.285 149.065C101.477 149.341 101.618 149.683 101.708 150.091C101.798 150.493 101.843 150.949 101.843 151.459C101.843 151.975 101.798 152.434 101.708 152.836C101.618 153.238 101.477 153.577 101.285 153.853C101.099 154.129 100.859 154.342 100.565 154.492C100.277 154.636 99.9349 154.708 99.5389 154.708ZM99.5389 153.871C99.9889 153.871 100.307 153.703 100.493 153.367C100.679 153.025 100.772 152.563 100.772 151.981V150.928C100.772 150.352 100.679 149.896 100.493 149.56C100.307 149.218 99.9889 149.047 99.5389 149.047C99.0889 149.047 98.7709 149.218 98.5849 149.56C98.3989 149.896 98.3059 150.352 98.3059 150.928V151.99C98.3059 152.566 98.3989 153.025 98.5849 153.367C98.7709 153.703 99.0889 153.871 99.5389 153.871ZM103.342 148.318H105.511C106.081 148.318 106.522 148.465 106.834 148.759C107.152 149.053 107.311 149.455 107.311 149.965C107.311 150.331 107.221 150.622 107.041 150.838C106.861 151.054 106.618 151.207 106.312 151.297V151.342C106.678 151.426 106.972 151.588 107.194 151.828C107.416 152.062 107.527 152.395 107.527 152.827C107.527 153.085 107.485 153.322 107.401 153.538C107.317 153.754 107.197 153.943 107.041 154.105C106.885 154.261 106.696 154.384 106.474 154.474C106.258 154.558 106.018 154.6 105.754 154.6H103.342V148.318ZM105.448 153.826C105.784 153.826 106.042 153.757 106.222 153.619C106.402 153.481 106.492 153.259 106.492 152.953V152.629C106.492 152.323 106.402 152.101 106.222 151.963C106.042 151.825 105.784 151.756 105.448 151.756H104.332V153.826H105.448ZM105.304 151.018C105.622 151.018 105.862 150.958 106.024 150.838C106.192 150.712 106.276 150.505 106.276 150.217V149.893C106.276 149.605 106.192 149.401 106.024 149.281C105.862 149.155 105.622 149.092 105.304 149.092H104.332V151.018H105.304ZM110.998 154.708C110.452 154.708 109.993 154.612 109.621 154.42C109.249 154.228 108.943 153.973 108.703 153.655L109.351 153.034C109.591 153.322 109.846 153.535 110.116 153.673C110.386 153.805 110.692 153.871 111.034 153.871C111.43 153.871 111.733 153.781 111.943 153.601C112.159 153.421 112.267 153.163 112.267 152.827C112.267 152.557 112.189 152.35 112.033 152.206C111.877 152.056 111.61 151.948 111.232 151.882L110.548 151.774C110.248 151.726 109.996 151.648 109.792 151.54C109.588 151.426 109.423 151.294 109.297 151.144C109.171 150.988 109.078 150.817 109.018 150.631C108.964 150.439 108.937 150.238 108.937 150.028C108.937 149.434 109.129 148.984 109.513 148.678C109.897 148.366 110.425 148.21 111.097 148.21C111.595 148.21 112.018 148.291 112.366 148.453C112.72 148.609 113.005 148.831 113.221 149.119L112.591 149.749C112.417 149.539 112.21 149.371 111.97 149.245C111.736 149.113 111.445 149.047 111.097 149.047C110.725 149.047 110.44 149.128 110.242 149.29C110.05 149.446 109.954 149.677 109.954 149.983C109.954 150.241 110.029 150.445 110.179 150.595C110.335 150.739 110.608 150.844 110.998 150.91L111.664 151.027C112.228 151.129 112.639 151.336 112.897 151.648C113.155 151.954 113.284 152.329 113.284 152.773C113.284 153.061 113.233 153.325 113.131 153.565C113.035 153.805 112.888 154.009 112.69 154.177C112.498 154.345 112.258 154.477 111.97 154.573C111.688 154.663 111.364 154.708 110.998 154.708Z" fill="#38383A"/>
<rect x="125.5" y="131.6" width="127" height="40" rx="8" fill="#E5E5E5" fill-opacity="0.4"/>
<rect x="129.5" y="135.6" width="32" height="32" rx="6.4" fill="#F3B01C"/>
<rect x="129.5" y="135.6" width="32" height="32" rx="6.4" fill="url(#paint7_linear_1387_2022)" fill-opacity="0.3"/>
<rect x="130" y="136.1" width="31" height="31" rx="5.9" stroke="black" stroke-opacity="0.1"/>
<path fill-rule="evenodd" clip-rule="evenodd" d="M138.727 144.254C138.387 144.523 138.28 144.755 138.28 144.932C138.28 145.11 138.387 145.342 138.727 145.611C139.062 145.877 139.572 146.133 140.238 146.356C141.567 146.8 143.427 147.082 145.5 147.082C147.573 147.082 149.433 146.8 150.761 146.356C151.427 146.133 151.937 145.877 152.273 145.611C152.613 145.342 152.72 145.11 152.72 144.932C152.72 144.755 152.613 144.523 152.273 144.254C151.937 143.988 151.427 143.732 150.761 143.509C149.433 143.065 147.573 142.783 145.5 142.783C143.427 142.783 141.567 143.065 140.238 143.509C139.572 143.732 139.062 143.988 138.727 144.254ZM137.48 144.819H137.485C137.527 144.343 137.83 143.943 138.23 143.626C138.666 143.282 139.272 142.989 139.985 142.75C141.414 142.272 143.364 141.983 145.5 141.983C147.635 141.983 149.585 142.272 151.015 142.75C151.728 142.989 152.333 143.282 152.769 143.626C153.2 143.968 153.52 144.406 153.52 144.932C153.52 144.974 153.518 145.016 153.514 145.057H153.52V149.138V153.763V158.268C153.52 158.794 153.2 159.233 152.769 159.574C152.333 159.919 151.728 160.211 151.015 160.45C149.585 160.928 147.635 161.217 145.5 161.217C143.364 161.217 141.415 160.928 139.985 160.45C139.272 160.211 138.666 159.919 138.23 159.574C137.799 159.233 137.48 158.794 137.48 158.268V156.117V153.763V151.58V149.138V147.043V144.932V144.819ZM138.28 155.139V156.117C138.28 156.278 138.357 156.472 138.579 156.694C138.803 156.917 139.151 157.142 139.62 157.353C140.556 157.773 141.899 158.097 143.475 158.249L143.398 159.046C141.768 158.888 140.333 158.549 139.292 158.083C138.905 157.909 138.561 157.713 138.28 157.493V158.268C138.28 158.445 138.387 158.678 138.727 158.947C139.062 159.212 139.572 159.468 140.238 159.691C141.567 160.136 143.427 160.417 145.5 160.417C147.573 160.417 149.433 160.136 150.761 159.691C151.427 159.468 151.937 159.212 152.273 158.947C152.613 158.678 152.72 158.445 152.72 158.268V155.139C152.289 155.475 151.703 155.763 151.018 155.999C149.587 156.493 147.636 156.791 145.5 156.791C143.363 156.791 141.412 156.493 139.981 155.999C139.297 155.763 138.711 155.475 138.28 155.139ZM152.72 153.763C152.72 153.956 152.607 154.199 152.268 154.476C151.933 154.749 151.423 155.013 150.758 155.243C149.431 155.7 147.572 155.991 145.5 155.991C143.428 155.991 141.569 155.7 140.242 155.243C139.577 155.013 139.067 154.749 138.731 154.476C138.393 154.199 138.28 153.956 138.28 153.763V152.956C138.561 153.175 138.905 153.372 139.292 153.546C140.333 154.012 141.768 154.351 143.398 154.508L143.475 153.712C141.899 153.56 140.556 153.235 139.62 152.816C139.151 152.605 138.803 152.38 138.579 152.156C138.357 151.935 138.28 151.741 138.28 151.58V150.514C138.711 150.85 139.297 151.138 139.981 151.374C141.412 151.868 143.363 152.166 145.5 152.166C147.636 152.166 149.587 151.868 151.018 151.374C151.703 151.138 152.289 150.85 152.72 150.514V153.763ZM139.292 149.008C138.905 148.835 138.561 148.638 138.28 148.419V149.138C138.28 149.331 138.393 149.574 138.731 149.851C139.067 150.124 139.577 150.388 140.242 150.618C141.569 151.075 143.428 151.366 145.5 151.366C147.572 151.366 149.431 151.075 150.758 150.618C151.423 150.388 151.933 150.124 152.268 149.851C152.607 149.574 152.72 149.331 152.72 149.138V146.277C152.288 146.605 151.701 146.885 151.015 147.115C149.585 147.593 147.635 147.882 145.5 147.882C143.364 147.882 141.414 147.593 139.985 147.115C139.298 146.885 138.711 146.605 138.28 146.277V147.043C138.28 147.204 138.357 147.397 138.579 147.619C138.803 147.843 139.151 148.068 139.62 148.278C140.556 148.698 141.899 149.023 143.475 149.175L143.398 149.971C141.768 149.814 140.333 149.475 139.292 149.008Z" fill="#292929"/>
<circle cx="145.574" cy="149.562" r="0.648509" fill="#292929"/>
<circle cx="145.574" cy="154.096" r="0.648509" fill="#292929"/>
<circle cx="145.574" cy="158.631" r="0.648509" fill="#292929"/>
<path d="M173.658 154.6L173.181 152.926H171.183L170.706 154.6H169.68L171.516 148.318H172.893L174.729 154.6H173.658ZM172.218 149.335H172.146L171.372 152.089H172.992L172.218 149.335ZM178.136 154.708C177.338 154.708 176.744 154.426 176.354 153.862C175.97 153.298 175.778 152.497 175.778 151.459C175.778 150.421 175.97 149.62 176.354 149.056C176.744 148.492 177.338 148.21 178.136 148.21C178.442 148.21 178.706 148.252 178.928 148.336C179.156 148.414 179.351 148.525 179.513 148.669C179.675 148.807 179.81 148.972 179.918 149.164C180.032 149.35 180.125 149.551 180.197 149.767L179.288 150.073C179.24 149.929 179.186 149.794 179.126 149.668C179.066 149.542 178.991 149.434 178.901 149.344C178.811 149.254 178.703 149.182 178.577 149.128C178.457 149.074 178.307 149.047 178.127 149.047C177.683 149.047 177.359 149.218 177.155 149.56C176.951 149.896 176.849 150.352 176.849 150.928V151.99C176.849 152.566 176.951 153.025 177.155 153.367C177.359 153.703 177.683 153.871 178.127 153.871C178.307 153.871 178.457 153.844 178.577 153.79C178.703 153.736 178.811 153.664 178.901 153.574C178.991 153.484 179.066 153.376 179.126 153.25C179.186 153.124 179.24 152.989 179.288 152.845L180.197 153.151C180.125 153.367 180.032 153.571 179.918 153.763C179.81 153.949 179.675 154.114 179.513 154.258C179.351 154.396 179.156 154.507 178.928 154.591C178.706 154.669 178.442 154.708 178.136 154.708ZM181.733 154.6V153.835H183.209V149.083H181.733V148.318H185.693V149.083H184.217V153.835H185.693V154.6H181.733ZM187.507 148.318H189.379C190.183 148.318 190.777 148.585 191.161 149.119C191.551 149.653 191.746 150.433 191.746 151.459C191.746 152.485 191.551 153.265 191.161 153.799C190.777 154.333 190.183 154.6 189.379 154.6H187.507V148.318ZM189.316 153.772C189.778 153.772 190.12 153.619 190.342 153.313C190.57 153.001 190.684 152.557 190.684 151.981V150.937C190.684 150.361 190.57 149.92 190.342 149.614C190.12 149.302 189.778 149.146 189.316 149.146H188.506V153.772H189.316ZM199.02 148.318H200.892C201.696 148.318 202.29 148.585 202.674 149.119C203.064 149.653 203.259 150.433 203.259 151.459C203.259 152.485 203.064 153.265 202.674 153.799C202.29 154.333 201.696 154.6 200.892 154.6H199.02V148.318ZM200.829 153.772C201.291 153.772 201.633 153.619 201.855 153.313C202.083 153.001 202.197 152.557 202.197 151.981V150.937C202.197 150.361 202.083 149.92 201.855 149.614C201.633 149.302 201.291 149.146 200.829 149.146H200.019V153.772H200.829ZM208.197 154.6L207.72 152.926H205.722L205.245 154.6H204.219L206.055 148.318H207.432L209.268 154.6H208.197ZM206.757 149.335H206.685L205.911 152.089H207.531L206.757 149.335ZM212.999 149.164V154.6H211.991V149.164H210.02V148.318H214.97V149.164H212.999ZM219.71 154.6L219.233 152.926H217.235L216.758 154.6H215.732L217.568 148.318H218.945L220.781 154.6H219.71ZM218.27 149.335H218.198L217.424 152.089H219.044L218.27 149.335ZM222.055 148.318H224.224C224.794 148.318 225.235 148.465 225.547 148.759C225.865 149.053 226.024 149.455 226.024 149.965C226.024 150.331 225.934 150.622 225.754 150.838C225.574 151.054 225.331 151.207 225.025 151.297V151.342C225.391 151.426 225.685 151.588 225.907 151.828C226.129 152.062 226.24 152.395 226.24 152.827C226.24 153.085 226.198 153.322 226.114 153.538C226.03 153.754 225.91 153.943 225.754 154.105C225.598 154.261 225.409 154.384 225.187 154.474C224.971 154.558 224.731 154.6 224.467 154.6H222.055V148.318ZM224.161 153.826C224.497 153.826 224.755 153.757 224.935 153.619C225.115 153.481 225.205 153.259 225.205 152.953V152.629C225.205 152.323 225.115 152.101 224.935 151.963C224.755 151.825 224.497 151.756 224.161 151.756H223.045V153.826H224.161ZM224.017 151.018C224.335 151.018 224.575 150.958 224.737 150.838C224.905 150.712 224.989 150.505 224.989 150.217V149.893C224.989 149.605 224.905 149.401 224.737 149.281C224.575 149.155 224.335 149.092 224.017 149.092H223.045V151.018H224.017ZM231.223 154.6L230.746 152.926H228.748L228.271 154.6H227.245L229.081 148.318H230.458L232.294 154.6H231.223ZM229.783 149.335H229.711L228.937 152.089H230.557L229.783 149.335ZM235.467 154.708C234.921 154.708 234.462 154.612 234.09 154.42C233.718 154.228 233.412 153.973 233.172 153.655L233.82 153.034C234.06 153.322 234.315 153.535 234.585 153.673C234.855 153.805 235.161 153.871 235.503 153.871C235.899 153.871 236.202 153.781 236.412 153.601C236.628 153.421 236.736 153.163 236.736 152.827C236.736 152.557 236.658 152.35 236.502 152.206C236.346 152.056 236.079 151.948 235.701 151.882L235.017 151.774C234.717 151.726 234.465 151.648 234.261 151.54C234.057 151.426 233.892 151.294 233.766 151.144C233.64 150.988 233.547 150.817 233.487 150.631C233.433 150.439 233.406 150.238 233.406 150.028C233.406 149.434 233.598 148.984 233.982 148.678C234.366 148.366 234.894 148.21 235.566 148.21C236.064 148.21 236.487 148.291 236.835 148.453C237.189 148.609 237.474 148.831 237.69 149.119L237.06 149.749C236.886 149.539 236.679 149.371 236.439 149.245C236.205 149.113 235.914 149.047 235.566 149.047C235.194 149.047 234.909 149.128 234.711 149.29C234.519 149.446 234.423 149.677 234.423 149.983C234.423 150.241 234.498 150.445 234.648 150.595C234.804 150.739 235.077 150.844 235.467 150.91L236.133 151.027C236.697 151.129 237.108 151.336 237.366 151.648C237.624 151.954 237.753 152.329 237.753 152.773C237.753 153.061 237.702 153.325 237.6 153.565C237.504 153.805 237.357 154.009 237.159 154.177C236.967 154.345 236.727 154.477 236.439 154.573C236.157 154.663 235.833 154.708 235.467 154.708ZM239.352 154.6V148.318H243.285V149.164H240.36V150.991H243.177V151.837H240.36V153.754H243.285V154.6H239.352Z" fill="#38383A"/>
<rect x="255.7" y="131.6" width="121" height="40" rx="8" fill="#E5E5E5" fill-opacity="0.4"/>
<rect x="259.7" y="135.6" width="32" height="32" rx="6.4" fill="#8D2676"/>
<rect x="259.7" y="135.6" width="32" height="32" rx="6.4" fill="url(#paint8_linear_1387_2022)" fill-opacity="0.3"/>
<rect x="260.2" y="136.1" width="31" height="31" rx="5.9" stroke="black" stroke-opacity="0.1"/>
<path d="M275.7 145.677H275.486L275.367 145.499L275.023 144.982C274.682 144.468 274.107 144.16 273.491 144.16H267.86C266.844 144.16 266.02 144.984 266.02 146V157.2C266.02 158.216 266.844 159.04 267.86 159.04H283.54C284.556 159.04 285.38 158.216 285.38 157.2V147.517C285.38 146.501 284.556 145.677 283.54 145.677H275.7Z" stroke="white" stroke-width="0.8"/>
<path d="M275.877 145.507L274.58 148.24H266.277" stroke="white" stroke-width="0.8"/>
<path d="M300.474 154.6V148.318H304.515V149.164H301.482V150.991H304.236V151.837H301.482V154.6H300.474ZM306.176 154.6V153.835H307.652V149.083H306.176V148.318H310.136V149.083H308.66V153.835H310.136V154.6H306.176ZM312.185 154.6V148.318H313.193V153.754H316.055V154.6H312.185ZM317.743 154.6V148.318H321.676V149.164H318.751V150.991H321.568V151.837H318.751V153.754H321.676V154.6H317.743ZM331.128 154.708C330.582 154.708 330.123 154.612 329.751 154.42C329.379 154.228 329.073 153.973 328.833 153.655L329.481 153.034C329.721 153.322 329.976 153.535 330.246 153.673C330.516 153.805 330.822 153.871 331.164 153.871C331.56 153.871 331.863 153.781 332.073 153.601C332.289 153.421 332.397 153.163 332.397 152.827C332.397 152.557 332.319 152.35 332.163 152.206C332.007 152.056 331.74 151.948 331.362 151.882L330.678 151.774C330.378 151.726 330.126 151.648 329.922 151.54C329.718 151.426 329.553 151.294 329.427 151.144C329.301 150.988 329.208 150.817 329.148 150.631C329.094 150.439 329.067 150.238 329.067 150.028C329.067 149.434 329.259 148.984 329.643 148.678C330.027 148.366 330.555 148.21 331.227 148.21C331.725 148.21 332.148 148.291 332.496 148.453C332.85 148.609 333.135 148.831 333.351 149.119L332.721 149.749C332.547 149.539 332.34 149.371 332.1 149.245C331.866 149.113 331.575 149.047 331.227 149.047C330.855 149.047 330.57 149.128 330.372 149.29C330.18 149.446 330.084 149.677 330.084 149.983C330.084 150.241 330.159 150.445 330.309 150.595C330.465 150.739 330.738 150.844 331.128 150.91L331.794 151.027C332.358 151.129 332.769 151.336 333.027 151.648C333.285 151.954 333.414 152.329 333.414 152.773C333.414 153.061 333.363 153.325 333.261 153.565C333.165 153.805 333.018 154.009 332.82 154.177C332.628 154.345 332.388 154.477 332.1 154.573C331.818 154.663 331.494 154.708 331.128 154.708ZM337.443 149.164V154.6H336.435V149.164H334.464V148.318H339.414V149.164H337.443ZM342.695 154.708C342.299 154.708 341.954 154.636 341.66 154.492C341.372 154.342 341.132 154.129 340.94 153.853C340.754 153.577 340.616 153.238 340.526 152.836C340.436 152.434 340.391 151.975 340.391 151.459C340.391 150.949 340.436 150.493 340.526 150.091C340.616 149.683 340.754 149.341 340.94 149.065C341.132 148.789 341.372 148.579 341.66 148.435C341.954 148.285 342.299 148.21 342.695 148.21C343.091 148.21 343.433 148.285 343.721 148.435C344.015 148.579 344.255 148.789 344.441 149.065C344.633 149.341 344.774 149.683 344.864 150.091C344.954 150.493 344.999 150.949 344.999 151.459C344.999 151.975 344.954 152.434 344.864 152.836C344.774 153.238 344.633 153.577 344.441 153.853C344.255 154.129 344.015 154.342 343.721 154.492C343.433 154.636 343.091 154.708 342.695 154.708ZM342.695 153.871C343.145 153.871 343.463 153.703 343.649 153.367C343.835 153.025 343.928 152.563 343.928 151.981V150.928C343.928 150.352 343.835 149.896 343.649 149.56C343.463 149.218 343.145 149.047 342.695 149.047C342.245 149.047 341.927 149.218 341.741 149.56C341.555 149.896 341.462 150.352 341.462 150.928V151.99C341.462 152.566 341.555 153.025 341.741 153.367C341.927 153.703 342.245 153.871 342.695 153.871ZM347.507 154.6H346.508V148.318H348.857C349.457 148.318 349.913 148.486 350.225 148.822C350.543 149.158 350.702 149.62 350.702 150.208C350.702 150.688 350.585 151.084 350.351 151.396C350.117 151.708 349.781 151.9 349.343 151.972L350.792 154.6H349.676L348.344 152.062H347.507V154.6ZM348.713 151.252C349.337 151.252 349.649 150.967 349.649 150.397V150.01C349.649 149.44 349.337 149.155 348.713 149.155H347.507V151.252H348.713ZM355.666 154.6L355.189 152.926H353.191L352.714 154.6H351.688L353.524 148.318H354.901L356.737 154.6H355.666ZM354.226 149.335H354.154L353.38 152.089H355L354.226 149.335ZM361.135 153.736H361.072C361.018 153.862 360.952 153.985 360.874 154.105C360.802 154.219 360.709 154.321 360.595 154.411C360.487 154.501 360.355 154.573 360.199 154.627C360.043 154.681 359.863 154.708 359.659 154.708C359.005 154.708 358.513 154.429 358.183 153.871C357.853 153.313 357.688 152.524 357.688 151.504C357.688 150.436 357.877 149.62 358.255 149.056C358.633 148.492 359.212 148.21 359.992 148.21C360.298 148.21 360.565 148.252 360.793 148.336C361.027 148.42 361.225 148.534 361.387 148.678C361.549 148.816 361.684 148.981 361.792 149.173C361.9 149.359 361.987 149.557 362.053 149.767L361.144 150.073C361.096 149.935 361.042 149.806 360.982 149.686C360.922 149.56 360.847 149.449 360.757 149.353C360.673 149.257 360.568 149.182 360.442 149.128C360.322 149.074 360.175 149.047 360.001 149.047C359.563 149.047 359.245 149.218 359.047 149.56C358.855 149.896 358.759 150.352 358.759 150.928V151.927C358.759 152.215 358.78 152.479 358.822 152.719C358.864 152.959 358.933 153.166 359.029 153.34C359.131 153.508 359.26 153.64 359.416 153.736C359.578 153.832 359.773 153.88 360.001 153.88C360.367 153.88 360.646 153.772 360.838 153.556C361.036 153.334 361.135 153.052 361.135 152.71V152.143H359.92V151.387H362.053V154.6H361.135V153.736ZM363.795 154.6V148.318H367.728V149.164H364.803V150.991H367.62V151.837H364.803V153.754H367.728V154.6H363.795Z" fill="#38383A"/>
<rect x="134" y="174.8" width="127" height="40" rx="8" fill="#E5E5E5" fill-opacity="0.4"/>
<rect x="138" y="178.8" width="32" height="32" rx="6.4" fill="#8D2676"/>
<rect x="138" y="178.8" width="32" height="32" rx="6.4" fill="url(#paint9_linear_1387_2022)" fill-opacity="0.3"/>
<rect x="138.5" y="179.3" width="31" height="31" rx="5.9" stroke="black" stroke-opacity="0.1"/>
<path fill-rule="evenodd" clip-rule="evenodd" d="M154 184.778L154.126 184.82L163.726 188.02L164 188.111V188.399V201.199V201.488L163.726 201.579L154.126 204.779L154 204.821L153.874 204.779L144.274 201.579L144 201.488V201.199V188.399V188.111L144.274 188.02L153.874 184.82L154 184.778ZM144.8 200.86C144.807 200.874 144.813 200.889 144.818 200.904C144.819 200.909 144.821 200.914 144.822 200.919L154 203.978L163.178 200.919C163.179 200.914 163.181 200.909 163.182 200.904C163.187 200.889 163.193 200.874 163.2 200.86V188.688L154 185.621L144.8 188.688V200.86ZM154.433 197.79V197.758C154.433 197.537 154.254 197.358 154.033 197.358C153.878 197.358 153.744 197.446 153.677 197.574C153.575 197.678 153.533 197.834 153.582 197.982C153.643 198.162 153.819 198.271 154 198.254C154.181 198.271 154.357 198.162 154.418 197.982C154.439 197.918 154.443 197.853 154.433 197.79ZM154.033 196.599C153.812 196.599 153.633 196.42 153.633 196.199V196.121C153.633 195.9 153.812 195.721 154.033 195.721C154.254 195.721 154.433 195.9 154.433 196.121V196.199C154.433 196.42 154.254 196.599 154.033 196.599ZM154.033 194.962C153.812 194.962 153.633 194.783 153.633 194.562V194.484C153.633 194.263 153.812 194.084 154.033 194.084C154.254 194.084 154.433 194.263 154.433 194.484V194.562C154.433 194.783 154.254 194.962 154.033 194.962ZM154.033 193.325C153.812 193.325 153.633 193.146 153.633 192.925V192.847C153.633 192.626 153.812 192.447 154.033 192.447C154.254 192.447 154.433 192.626 154.433 192.847V192.925C154.433 193.146 154.254 193.325 154.033 193.325ZM154.033 191.688C153.812 191.688 153.633 191.509 153.633 191.288V191.21C153.633 190.989 153.812 190.81 154.033 190.81C154.254 190.81 154.433 190.989 154.433 191.21V191.288C154.433 191.509 154.254 191.688 154.033 191.688ZM154.033 190.051C153.812 190.051 153.633 189.872 153.633 189.651V189.573C153.633 189.352 153.812 189.173 154.033 189.173C154.254 189.173 154.433 189.352 154.433 189.573V189.651C154.433 189.872 154.254 190.051 154.033 190.051ZM154.033 188.414C153.812 188.414 153.633 188.235 153.633 188.014V187.936C153.633 187.715 153.812 187.536 154.033 187.536C154.254 187.536 154.433 187.715 154.433 187.936V188.014C154.433 188.235 154.254 188.414 154.033 188.414ZM154.033 186.777C153.812 186.777 153.633 186.598 153.633 186.377V186.338C153.633 186.117 153.812 185.938 154.033 185.938C154.254 185.938 154.433 186.117 154.433 186.338V186.377C154.433 186.598 154.254 186.777 154.033 186.777ZM152.565 198.743C152.774 198.673 152.887 198.447 152.818 198.237C152.748 198.027 152.521 197.914 152.312 197.984L152.235 198.009C152.026 198.079 151.913 198.306 151.982 198.515C152.052 198.725 152.279 198.838 152.488 198.768L152.565 198.743ZM155.688 197.984C155.479 197.914 155.252 198.027 155.182 198.237C155.113 198.447 155.226 198.673 155.435 198.743L155.512 198.768C155.721 198.838 155.948 198.725 156.018 198.515C156.087 198.306 155.974 198.079 155.765 198.009L155.688 197.984ZM150.965 199.276C151.174 199.207 151.287 198.98 151.218 198.77C151.148 198.561 150.921 198.448 150.712 198.517L150.635 198.543C150.426 198.613 150.313 198.839 150.382 199.049C150.452 199.258 150.679 199.372 150.888 199.302L150.965 199.276ZM157.288 198.517C157.079 198.448 156.852 198.561 156.782 198.77C156.713 198.98 156.826 199.207 157.035 199.276L157.112 199.302C157.321 199.372 157.548 199.258 157.618 199.049C157.687 198.839 157.574 198.613 157.365 198.543L157.288 198.517ZM149.365 199.81C149.574 199.74 149.687 199.513 149.618 199.304C149.548 199.094 149.321 198.981 149.112 199.051L149.035 199.076C148.826 199.146 148.713 199.373 148.782 199.582C148.852 199.792 149.079 199.905 149.288 199.835L149.365 199.81ZM158.888 199.051C158.679 198.981 158.452 199.094 158.382 199.304C158.313 199.513 158.426 199.74 158.635 199.81L158.712 199.835C158.921 199.905 159.148 199.792 159.218 199.582C159.287 199.373 159.174 199.146 158.965 199.076L158.888 199.051ZM147.765 200.343C147.974 200.273 148.087 200.047 148.018 199.837C147.948 199.627 147.721 199.514 147.512 199.584L147.435 199.609C147.226 199.679 147.113 199.906 147.182 200.115C147.252 200.325 147.479 200.438 147.688 200.368L147.765 200.343ZM160.488 199.584C160.279 199.514 160.052 199.627 159.982 199.837C159.913 200.047 160.026 200.273 160.235 200.343L160.312 200.368C160.521 200.438 160.748 200.325 160.818 200.115C160.887 199.906 160.774 199.679 160.565 199.609L160.488 199.584ZM146.165 200.876C146.374 200.807 146.487 200.58 146.418 200.37C146.348 200.161 146.121 200.048 145.912 200.117L145.835 200.143C145.626 200.213 145.513 200.439 145.582 200.649C145.652 200.858 145.879 200.972 146.088 200.902L146.165 200.876ZM162.088 200.117C161.879 200.048 161.652 200.161 161.582 200.37C161.513 200.58 161.626 200.807 161.835 200.876L161.912 200.902C162.121 200.972 162.348 200.858 162.418 200.649C162.487 200.439 162.374 200.213 162.165 200.143L162.088 200.117Z" fill="white"/>
<circle cx="147.523" cy="197.2" r="1.2" fill="white"/>
<circle cx="146.723" cy="190.643" r="0.8" fill="white"/>
<circle cx="159.865" cy="190.642" r="1.2" stroke="white" stroke-width="0.8"/>
<circle cx="150.687" cy="192.865" r="0.8" stroke="white" stroke-width="0.8"/>
<circle cx="161.465" cy="197.013" r="0.8" fill="white"/>
<circle cx="157.465" cy="194.434" r="0.8" fill="white"/>
<path d="M179.998 197.8L178.225 191.518H179.314L180.142 194.686L180.691 196.819H180.745L181.294 194.686L182.131 191.518H183.175L181.402 197.8H179.998ZM184.53 197.8V191.518H188.463V192.364H185.538V194.191H188.355V195.037H185.538V196.954H188.463V197.8H184.53ZM192.393 197.908C191.595 197.908 191.001 197.626 190.611 197.062C190.227 196.498 190.035 195.697 190.035 194.659C190.035 193.621 190.227 192.82 190.611 192.256C191.001 191.692 191.595 191.41 192.393 191.41C192.699 191.41 192.963 191.452 193.185 191.536C193.413 191.614 193.608 191.725 193.77 191.869C193.932 192.007 194.067 192.172 194.175 192.364C194.289 192.55 194.382 192.751 194.454 192.967L193.545 193.273C193.497 193.129 193.443 192.994 193.383 192.868C193.323 192.742 193.248 192.634 193.158 192.544C193.068 192.454 192.96 192.382 192.834 192.328C192.714 192.274 192.564 192.247 192.384 192.247C191.94 192.247 191.616 192.418 191.412 192.76C191.208 193.096 191.106 193.552 191.106 194.128V195.19C191.106 195.766 191.208 196.225 191.412 196.567C191.616 196.903 191.94 197.071 192.384 197.071C192.564 197.071 192.714 197.044 192.834 196.99C192.96 196.936 193.068 196.864 193.158 196.774C193.248 196.684 193.323 196.576 193.383 196.45C193.443 196.324 193.497 196.189 193.545 196.045L194.454 196.351C194.382 196.567 194.289 196.771 194.175 196.963C194.067 197.149 193.932 197.314 193.77 197.458C193.608 197.596 193.413 197.707 193.185 197.791C192.963 197.869 192.699 197.908 192.393 197.908ZM198.473 192.364V197.8H197.465V192.364H195.494V191.518H200.444V192.364H198.473ZM203.726 197.908C203.33 197.908 202.985 197.836 202.691 197.692C202.403 197.542 202.163 197.329 201.971 197.053C201.785 196.777 201.647 196.438 201.557 196.036C201.467 195.634 201.422 195.175 201.422 194.659C201.422 194.149 201.467 193.693 201.557 193.291C201.647 192.883 201.785 192.541 201.971 192.265C202.163 191.989 202.403 191.779 202.691 191.635C202.985 191.485 203.33 191.41 203.726 191.41C204.122 191.41 204.464 191.485 204.752 191.635C205.046 191.779 205.286 191.989 205.472 192.265C205.664 192.541 205.805 192.883 205.895 193.291C205.985 193.693 206.03 194.149 206.03 194.659C206.03 195.175 205.985 195.634 205.895 196.036C205.805 196.438 205.664 196.777 205.472 197.053C205.286 197.329 205.046 197.542 204.752 197.692C204.464 197.836 204.122 197.908 203.726 197.908ZM203.726 197.071C204.176 197.071 204.494 196.903 204.68 196.567C204.866 196.225 204.959 195.763 204.959 195.181V194.128C204.959 193.552 204.866 193.096 204.68 192.76C204.494 192.418 204.176 192.247 203.726 192.247C203.276 192.247 202.958 192.418 202.772 192.76C202.586 193.096 202.493 193.552 202.493 194.128V195.19C202.493 195.766 202.586 196.225 202.772 196.567C202.958 196.903 203.276 197.071 203.726 197.071ZM208.537 197.8H207.538V191.518H209.887C210.487 191.518 210.943 191.686 211.255 192.022C211.573 192.358 211.732 192.82 211.732 193.408C211.732 193.888 211.615 194.284 211.381 194.596C211.147 194.908 210.811 195.1 210.373 195.172L211.822 197.8H210.706L209.374 195.262H208.537V197.8ZM209.743 194.452C210.367 194.452 210.679 194.167 210.679 193.597V193.21C210.679 192.64 210.367 192.355 209.743 192.355H208.537V194.452H209.743ZM220.941 197.908C220.395 197.908 219.936 197.812 219.564 197.62C219.192 197.428 218.886 197.173 218.646 196.855L219.294 196.234C219.534 196.522 219.789 196.735 220.059 196.873C220.329 197.005 220.635 197.071 220.977 197.071C221.373 197.071 221.676 196.981 221.886 196.801C222.102 196.621 222.21 196.363 222.21 196.027C222.21 195.757 222.132 195.55 221.976 195.406C221.82 195.256 221.553 195.148 221.175 195.082L220.491 194.974C220.191 194.926 219.939 194.848 219.735 194.74C219.531 194.626 219.366 194.494 219.24 194.344C219.114 194.188 219.021 194.017 218.961 193.831C218.907 193.639 218.88 193.438 218.88 193.228C218.88 192.634 219.072 192.184 219.456 191.878C219.84 191.566 220.368 191.41 221.04 191.41C221.538 191.41 221.961 191.491 222.309 191.653C222.663 191.809 222.948 192.031 223.164 192.319L222.534 192.949C222.36 192.739 222.153 192.571 221.913 192.445C221.679 192.313 221.388 192.247 221.04 192.247C220.668 192.247 220.383 192.328 220.185 192.49C219.993 192.646 219.897 192.877 219.897 193.183C219.897 193.441 219.972 193.645 220.122 193.795C220.278 193.939 220.551 194.044 220.941 194.11L221.607 194.227C222.171 194.329 222.582 194.536 222.84 194.848C223.098 195.154 223.227 195.529 223.227 195.973C223.227 196.261 223.176 196.525 223.074 196.765C222.978 197.005 222.831 197.209 222.633 197.377C222.441 197.545 222.201 197.677 221.913 197.773C221.631 197.863 221.307 197.908 220.941 197.908ZM224.826 197.8V191.518H228.759V192.364H225.834V194.191H228.651V195.037H225.834V196.954H228.759V197.8H224.826ZM233.966 197.8L233.489 196.126H231.491L231.014 197.8H229.988L231.824 191.518H233.201L235.037 197.8H233.966ZM232.526 192.535H232.454L231.68 195.289H233.3L232.526 192.535ZM237.32 197.8H236.321V191.518H238.67C239.27 191.518 239.726 191.686 240.038 192.022C240.356 192.358 240.515 192.82 240.515 193.408C240.515 193.888 240.398 194.284 240.164 194.596C239.93 194.908 239.594 195.1 239.156 195.172L240.605 197.8H239.489L238.157 195.262H237.32V197.8ZM238.526 194.452C239.15 194.452 239.462 194.167 239.462 193.597V193.21C239.462 192.64 239.15 192.355 238.526 192.355H237.32V194.452H238.526ZM244.201 197.908C243.403 197.908 242.809 197.626 242.419 197.062C242.035 196.498 241.843 195.697 241.843 194.659C241.843 193.621 242.035 192.82 242.419 192.256C242.809 191.692 243.403 191.41 244.201 191.41C244.507 191.41 244.771 191.452 244.993 191.536C245.221 191.614 245.416 191.725 245.578 191.869C245.74 192.007 245.875 192.172 245.983 192.364C246.097 192.55 246.19 192.751 246.262 192.967L245.353 193.273C245.305 193.129 245.251 192.994 245.191 192.868C245.131 192.742 245.056 192.634 244.966 192.544C244.876 192.454 244.768 192.382 244.642 192.328C244.522 192.274 244.372 192.247 244.192 192.247C243.748 192.247 243.424 192.418 243.22 192.76C243.016 193.096 242.914 193.552 242.914 194.128V195.19C242.914 195.766 243.016 196.225 243.22 196.567C243.424 196.903 243.748 197.071 244.192 197.071C244.372 197.071 244.522 197.044 244.642 196.99C244.768 196.936 244.876 196.864 244.966 196.774C245.056 196.684 245.131 196.576 245.191 196.45C245.251 196.324 245.305 196.189 245.353 196.045L246.262 196.351C246.19 196.567 246.097 196.771 245.983 196.963C245.875 197.149 245.74 197.314 245.578 197.458C245.416 197.596 245.221 197.707 244.993 197.791C244.771 197.869 244.507 197.908 244.201 197.908ZM250.822 195.037H248.734V197.8H247.726V191.518H248.734V194.191H250.822V191.518H251.83V197.8H250.822V195.037Z" fill="#38383A"/>
<defs>
<linearGradient id="paint0_linear_1387_2022" x1="65.2601" y1="11.779" x2="46.7261" y2="34.7259" gradientUnits="userSpaceOnUse">
<stop stop-color="white"/>
<stop offset="1" stop-color="white" stop-opacity="0"/>
</linearGradient>
<linearGradient id="paint1_linear_1387_2022" x1="238.518" y1="11.9446" x2="227.045" y2="36.3624" gradientUnits="userSpaceOnUse">
<stop offset="0.0339624" stop-color="white"/>
<stop offset="1" stop-color="white" stop-opacity="0"/>
</linearGradient>
<linearGradient id="paint2_linear_1387_2022" x1="88.3182" y1="55.1448" x2="76.8447" y2="79.5626" gradientUnits="userSpaceOnUse">
<stop offset="0.0339624" stop-color="white"/>
<stop offset="1" stop-color="white" stop-opacity="0"/>
</linearGradient>
<linearGradient id="paint3_linear_1387_2022" x1="209.46" y1="54.9792" x2="190.926" y2="77.9261" gradientUnits="userSpaceOnUse">
<stop stop-color="white"/>
<stop offset="1" stop-color="white" stop-opacity="0"/>
</linearGradient>
<linearGradient id="paint4_linear_1387_2022" x1="65.9" y1="92.3999" x2="65.9" y2="124.4" gradientUnits="userSpaceOnUse">
<stop offset="0.138374" stop-color="white"/>
<stop offset="1" stop-color="white" stop-opacity="0"/>
</linearGradient>
<linearGradient id="paint5_linear_1387_2022" x1="216.356" y1="98.9047" x2="232.778" y2="127.174" gradientUnits="userSpaceOnUse">
<stop stop-color="white"/>
<stop offset="0.808396" stop-color="white" stop-opacity="0"/>
</linearGradient>
<linearGradient id="paint6_linear_1387_2022" x1="29.5558" y1="142.105" x2="45.9776" y2="170.374" gradientUnits="userSpaceOnUse">
<stop stop-color="white"/>
<stop offset="0.808396" stop-color="white" stop-opacity="0"/>
</linearGradient>
<linearGradient id="paint7_linear_1387_2022" x1="136.666" y1="143.945" x2="159.368" y2="167.6" gradientUnits="userSpaceOnUse">
<stop stop-color="white"/>
<stop offset="0.937997" stop-color="white" stop-opacity="0"/>
</linearGradient>
<linearGradient id="paint8_linear_1387_2022" x1="275.7" y1="135.6" x2="275.7" y2="167.6" gradientUnits="userSpaceOnUse">
<stop offset="0.138374" stop-color="white"/>
<stop offset="1" stop-color="white" stop-opacity="0"/>
</linearGradient>
<linearGradient id="paint9_linear_1387_2022" x1="139.799" y1="178.8" x2="160.729" y2="210.8" gradientUnits="userSpaceOnUse">
<stop stop-color="white"/>
<stop offset="1" stop-color="white" stop-opacity="0"/>
</linearGradient>
<clipPath id="clip0_1387_2022">
<rect width="22.4" height="22.4" fill="white" transform="translate(190.4 54)"/>
</clipPath>
<clipPath id="clip1_1387_2022">
<rect width="22.4" height="22.4" fill="white" transform="translate(54.7 97.1997)"/>
</clipPath>
<clipPath id="clip2_1387_2022">
<rect width="22.4" height="22.4" fill="white" transform="translate(27.1 140.247)"/>
</clipPath>
</defs>
</svg>
