<?xml version="1.0" encoding="utf-8"?>
<svg xmlns="http://www.w3.org/2000/svg" width="120" height="120" viewBox="0 0 120 120" fill="none">
  <ellipse cx="20" cy="113.314" rx="20" ry="6.686" fill="#D62F2A"/>
  <ellipse cx="20" cy="97.6143" rx="20" ry="8.51865" fill="#EE342F"/>
  <ellipse cx="20" cy="77.2437" rx="20" ry="10.7032" fill="#D62F2A"/>
  <ellipse cx="20" cy="52.204" rx="20" ry="13.6876" fill="#EE342F"/>
  <ellipse cx="20" cy="19.2578" rx="20" ry="19.2578" fill="#D62F2A"/>
  <ellipse cx="60" cy="113.314" rx="20" ry="6.686" fill="#EE342F"/>
  <ellipse cx="60" cy="97.6143" rx="20" ry="8.51865" fill="#D62F2A"/>
  <ellipse cx="60" cy="77.2437" rx="20" ry="10.7032" fill="#EE342F"/>
  <ellipse cx="60" cy="52.204" rx="20" ry="13.6876" fill="#D62F2A"/>
  <ellipse cx="60" cy="19.2578" rx="20" ry="19.2578" fill="#EE342F"/>
  <ellipse cx="100" cy="113.314" rx="20" ry="6.686" fill="#D62F2A"/>
  <ellipse cx="100" cy="97.6143" rx="20" ry="8.51865" fill="#EE342F"/>
  <ellipse cx="100" cy="77.2437" rx="20" ry="10.7032" fill="#D62F2A"/>
  <ellipse cx="100" cy="52.204" rx="20" ry="13.6876" fill="#EE342F"/>
  <ellipse cx="100" cy="19.2578" rx="20" ry="19.2578" fill="#D62F2A"/>
</svg>