<?xml version="1.0" encoding="utf-8"?>
<svg xmlns="http://www.w3.org/2000/svg" width="1426" height="84" viewBox="0 0 1426 84" fill="none">
<g clip-path="url(#clip0_71_767)">
<path opacity="0.5" d="M903.425 0.6H491.129M908.041 1.30089H486.78M912.859 2.02832H482.23M917.91 2.79292H477.48M923.179 3.58938H472.495M928.716 4.42301H467.277M934.52 5.29911H461.807M940.608 6.22301H456.07M946.998 7.18938H450.031M953.739 8.20885H443.659M960.847 9.28142H436.968M968.341 10.4124H429.892M976.27 11.6124H422.416M984.666 12.8814H414.487M993.582 14.2248H406.09M1003.03 15.6584H397.158M1013.12 17.1823H387.658M1023.86 18.8018H377.521M1035.35 20.5434H366.682M1047.66 22.4018H355.074M1060.89 24.3982H342.596M1075.14 26.554H329.148M1090.53 28.8796H314.629M1107.21 31.3965H298.906M1125.32 34.1363H281.811M1145.11 37.1257H263.144M1166.77 40.4018H242.704M1190.61 44.0071H220.223M1216.97 47.9894H195.368M1246.25 52.4124H167.718M1279.01 57.3664H136.824M1315.87 62.9363H102.066M1357.65 69.2496H62.6414M1405.44 76.4708H17.563M1426 84L891.465 2.3019e-08M1392.85 84L882.433 2.3019e-08M1359.68 84L873.384 2.3019e-08M1326.51 84L864.351 2.3019e-08M1293.36 84L855.319 2.3019e-08M1260.19 84L846.286 2.3019e-08M1227.02 84L837.254 2.3019e-08M1193.87 84L828.205 2.3019e-08M1160.7 84L819.173 2.3019e-08M1127.53 84L810.14 2.3019e-08M1094.38 84L801.108 2.3019e-08M1061.21 84L792.075 2.3019e-08M1028.04 84L783.026 2.3019e-08M994.886 84L773.994 2.3019e-08M961.717 84L764.961 2.3019e-08M928.565 84L755.929 2.3019e-08M895.396 84L746.88 2.3019e-08M862.227 84L737.847 2.3019e-08M829.075 84L728.815 2.3019e-08M795.906 84L719.783 2.3019e-08M762.737 84L710.75 2.3019e-08M729.584 84L701.701 2.3019e-08M696.415 84L692.669 2.3019e-08M663.246 84L683.636 2.3019e-08M630.094 84L674.604 2.3019e-08M596.925 84L665.571 2.3019e-08M563.756 84L656.522 2.3019e-08M530.604 84L647.49 2.3019e-08M497.435 84L638.457 2.3019e-08M464.283 84L629.425 2.3019e-08M431.114 84L620.376 2.3019e-08M397.944 84L611.343 2.3019e-08M364.792 84L602.311 2.3019e-08M331.623 84L593.279 2.3019e-08M298.454 84L584.246 2.3019e-08M265.302 84L575.197 2.3019e-08M232.133 84L566.165 2.3019e-08M198.964 84L557.132 2.3019e-08M165.812 84L548.1 2.3019e-08M132.643 84L539.067 2.3019e-08M99.4736 84L530.018 2.3019e-08M66.3213 84L520.986 2.3019e-08M33.1523 84L511.953 2.3019e-08M0 84L502.921 0" stroke="white" stroke-miterlimit="10" stroke-linecap="square"/>
</g>
<defs>
<clipPath id="clip0_71_767">
<rect width="1426" height="84" fill="white"/>
</clipPath>
</defs>
</svg>