<?xml version="1.0" encoding="utf-8"?>
<svg xmlns="http://www.w3.org/2000/svg" width="60" height="60" viewBox="0 0 60 60" fill="none">
<g clip-path="url(#clip0_34_377)">
<path d="M51.6781 7.9322C46.1357 -0.0508503 35.1018 -2.38983 27.1696 2.64406L13.1865 11.5932C9.37297 13.983 6.72891 17.8983 5.96619 22.322C5.30518 26.0339 5.8645 29.8475 7.64416 33.1525C6.42382 34.983 5.61026 37.0169 5.25433 39.1525C4.44077 43.678 5.50857 48.3559 8.15263 52.0678C13.7459 60.0508 24.7289 62.3898 32.6611 57.3559L46.6442 48.4576C50.4577 46.0678 53.1018 42.1525 53.8645 37.7288C54.5255 34.0169 53.9662 30.2034 52.1865 26.8983C53.4069 25.0678 54.2204 23.0339 54.5764 20.8983C55.4408 16.322 54.373 11.6441 51.6781 7.9322Z" fill="#FF3E00"/>
<path d="M25.7965 52.8305C21.2711 54 16.5423 52.2203 13.8982 48.4068C12.2711 46.1695 11.6609 43.3729 12.1185 40.6271C12.2202 40.1695 12.3219 39.7627 12.4236 39.3051L12.6779 38.4915L13.3897 39C15.0677 40.2203 16.8982 41.1356 18.8813 41.7458L19.3897 41.8983L19.3389 42.4068C19.288 43.1186 19.4914 43.8814 19.8982 44.4915C20.7118 45.661 22.1355 46.2203 23.5084 45.8644C23.8135 45.7627 24.1185 45.661 24.3728 45.5085L38.305 36.6102C39.0169 36.1525 39.4745 35.4915 39.627 34.678C39.7796 33.8644 39.5762 33 39.1185 32.339C38.305 31.1695 36.8813 30.661 35.5084 31.017C35.2033 31.1186 34.8982 31.2203 34.644 31.3729L29.305 34.7797C28.4406 35.339 27.4745 35.7458 26.4575 36C21.9321 37.1695 17.2033 35.3898 14.5592 31.5763C12.983 29.339 12.3219 26.5424 12.8304 23.7966C13.288 21.1525 14.9152 18.7627 17.2033 17.339L31.1863 8.44068C32.0507 7.88136 33.0168 7.47458 34.0338 7.16949C38.5592 6 43.288 7.77966 45.9321 11.5932C47.5592 13.8305 48.1694 16.6271 47.7118 19.3729C47.6101 19.8305 47.5084 20.2373 47.3558 20.6949L47.1016 21.5085L46.3897 21C44.7118 19.7797 42.8813 18.8644 40.8982 18.2542L40.3897 18.1017L40.4406 17.5932C40.4914 16.8814 40.288 16.1186 39.8813 15.5085C39.0677 14.339 37.644 13.8305 36.2711 14.1864C35.966 14.2881 35.6609 14.3898 35.4067 14.5424L21.4745 23.4407C20.7626 23.8983 20.305 24.5593 20.1524 25.3729C19.9999 26.1864 20.2033 27.0509 20.6609 27.7119C21.4745 28.8814 22.8982 29.3898 24.2711 29.0339C24.5762 28.9322 24.8813 28.8305 25.1355 28.678L30.4745 25.2712C31.3389 24.7119 32.305 24.3051 33.3219 24C37.8474 22.8305 42.5762 24.6102 45.2202 28.4237C46.8474 30.661 47.4575 33.4576 46.9999 36.2034C46.5423 38.8475 44.9152 41.2373 42.627 42.661L28.644 51.5593C27.7796 52.1186 26.8135 52.5254 25.7965 52.8305Z" fill="white"/>
</g>
<defs>
<clipPath id="clip0_34_377">
<rect width="49.8814" height="60" fill="white" transform="translate(5)"/>
</clipPath>
</defs>
</svg>