<?xml version="1.0" encoding="utf-8"?>
<svg xmlns="http://www.w3.org/2000/svg" width="60" height="60" viewBox="0 0 60 60" fill="none">
<path d="M28.1661 2.01507C28.0457 2.02602 27.6625 2.06434 27.3176 2.09172C19.3639 2.80882 11.9135 7.10053 7.19484 13.6967C4.56734 17.3644 2.88679 21.5247 2.2518 25.9313C2.02736 27.4696 2 27.9239 2 30.0096C2 32.0952 2.02736 32.5495 2.2518 34.0878C3.7736 44.6035 11.2567 53.4388 21.4057 56.7122C23.223 57.2979 25.139 57.6975 27.3176 57.9384C28.1661 58.0314 31.8338 58.0314 32.6823 57.9384C36.443 57.5223 39.6289 56.5917 42.771 54.9878C43.2528 54.7415 43.3457 54.6758 43.2801 54.6211C43.2364 54.5882 41.1835 51.8348 38.7202 48.5065L34.2425 42.4576L28.6314 34.1535C25.5441 29.5881 23.0041 25.8547 22.9821 25.8547C22.9603 25.8493 22.9385 29.5388 22.9274 34.044C22.911 41.9322 22.9056 42.2496 22.807 42.4358C22.6647 42.7039 22.5552 42.8134 22.3253 42.9339C22.1501 43.0215 21.9968 43.0379 21.1703 43.0379H20.2232L19.9714 42.8791C19.8072 42.7752 19.6868 42.6383 19.6047 42.4795L19.4898 42.2332L19.5007 31.2577L19.5171 20.2766L19.6868 20.0632C19.7744 19.9482 19.9605 19.8004 20.0918 19.7293C20.3163 19.6198 20.4039 19.6088 21.3509 19.6088C22.4676 19.6088 22.6538 19.6527 22.9439 19.9701C23.026 20.0577 26.0641 24.634 29.6989 30.1465C33.3337 35.6588 38.3042 43.1858 40.7456 46.8808L45.1796 53.5974L45.404 53.4497C47.3912 52.1577 49.4932 50.3184 51.1573 48.4025C54.699 44.3353 56.9818 39.3758 57.7481 34.0878C57.9726 32.5495 58 32.0952 58 30.0096C58 27.9239 57.9726 27.4696 57.7481 25.9313C56.2264 15.4156 48.7432 6.58046 38.5943 3.30695C36.8043 2.72671 34.8993 2.3271 32.7644 2.08624C32.2389 2.03149 28.6205 1.97128 28.1661 2.01507ZM39.6289 18.9519C39.8917 19.0833 40.1051 19.3351 40.1818 19.5979C40.2255 19.7402 40.2366 22.7838 40.2255 29.6428L40.2091 39.4853L38.4739 36.8248L36.7331 34.1644V27.0098C36.7331 22.3842 36.755 19.784 36.7879 19.6581C36.8754 19.3515 37.0671 19.1106 37.3298 18.9684C37.5542 18.8534 37.6363 18.8424 38.4957 18.8424C39.3059 18.8424 39.4483 18.8534 39.6289 18.9519Z" fill="black"/>
</svg>