<?xml version="1.0" encoding="utf-8"?>
<svg xmlns="http://www.w3.org/2000/svg" width="60" height="60" viewBox="0 0 60 60" fill="none">
<mask id="mask0_34_325" style="mask-type:luminance" maskUnits="userSpaceOnUse" x="2" y="5" width="56" height="51">
<path d="M58 5H2V55.4H58V5Z" fill="white"/>
</mask>
<g mask="url(#mask0_34_325)">
<path d="M36.7883 8.61312C34.726 5.42361 34.235 5 30.0368 5H29.9877H29.9387C25.7405 5 25.274 5.42361 23.1872 8.61312C21.2477 11.6034 2 47.3861 2 48.3829C2 49.8281 2.36826 51.1986 3.694 53.1422C5.04429 55.1108 7.37655 56.2072 9.07055 54.463C10.2244 53.2917 22.5734 31.6875 28.5392 23.5143C29.2513 22.4927 30.7242 22.4927 31.4607 23.5143C37.4266 31.6875 49.7755 53.2917 50.9294 54.463C52.6234 56.2072 54.9557 55.1108 56.306 53.1422C57.6318 51.1986 58 49.8281 58 48.3829C57.9755 47.3861 38.7277 11.5785 36.7883 8.61312Z" fill="#1173B6"/>
</g>
</svg>