<?xml version="1.0" encoding="utf-8"?>
<svg xmlns="http://www.w3.org/2000/svg" width="60" height="60" viewBox="0 0 60 60" fill="none">
<g clip-path="url(#clip0_34_373)">
<path d="M32.8534 4C46.2512 4 52.9091 10.3642 52.9091 20.5303C52.9091 28.1343 48.224 33.0932 41.8949 33.9198C47.2376 34.9944 50.3608 38.0525 50.9363 44.086L51.0196 45.1955L51.0923 46.2328L51.1551 47.2031L51.1988 47.9347L51.2456 48.798L51.2699 49.2906L51.3046 50.0732L51.3325 50.8124L51.3464 51.2373L51.3651 51.9181L51.3812 52.6965L51.3871 53.0726L51.3977 54.1626L51.401 55.3001L51.4012 55.9801H37.5849L37.5856 55.6965L37.5906 55.1456L37.5988 54.609L37.6227 53.3092L37.6287 52.8734L37.6335 52.1902L37.6328 51.7532L37.6288 51.295L37.6232 50.9353L37.6118 50.4318L37.5955 49.8979L37.5735 49.3301L37.5453 48.7252L37.5287 48.4079L37.5004 47.9119L37.4679 47.3908L37.4175 46.6546L37.3741 46.0696C37.3617 45.8891 37.3473 45.7129 37.3309 45.5408L37.2955 45.2023C36.8392 41.2055 35.2508 39.572 32.5304 39.0272L32.301 38.9843C32.1464 38.9573 31.9883 38.9336 31.8267 38.9129L31.5816 38.8841C31.5403 38.8797 31.4988 38.8755 31.4571 38.8714L31.2042 38.8492L30.946 38.831L30.6826 38.8169L30.4169 38.8066L30.1461 38.8L29.8701 38.7967L8 38.7963V27.9691H30.3878C30.7538 27.9691 31.1086 27.9621 31.452 27.948L31.7916 27.9315L32.1237 27.91L32.4483 27.8837C32.5017 27.8789 32.5549 27.8739 32.6077 27.8687L32.9209 27.8348C33.1272 27.8106 33.3285 27.7829 33.5247 27.7518L33.8153 27.7026C37.4482 27.0452 39.2646 25.1205 39.2646 21.3646C39.2646 17.1494 36.3057 14.5948 30.3878 14.5948H8V4H32.8534ZM22.6088 47.9086C24.4215 47.9086 25.18 48.9131 25.4502 49.8746L25.4858 50.0129L25.5151 50.1498L25.5341 50.258L25.5423 50.3115L25.5559 50.4171L25.5662 50.5205L25.5701 50.5713L25.5757 50.6708L25.5774 50.7194L25.5787 50.8142V55.9801H8V47.9086H22.6088Z" fill="#121212"/>
</g>
<defs>
<clipPath id="clip0_34_373">
<rect width="44.9091" height="52" fill="white" transform="translate(8 4)"/>
</clipPath>
</defs>
</svg>