<?xml version="1.0" encoding="utf-8"?>
<svg xmlns="http://www.w3.org/2000/svg" width="60" height="60" viewBox="0 0 60 60" fill="none">
<path d="M29.8057 3C16.0966 3 16.9521 8.94499 16.9521 8.94499L16.969 15.1043H30.0505V16.9522H11.7698C11.7698 16.9522 3 15.9566 3 29.7906C3 43.6213 10.6562 43.132 10.6562 43.132H15.2258V36.7127C15.2258 36.7127 14.9795 29.0566 22.7605 29.0566H35.734C35.734 29.0566 43.0239 29.1746 43.0239 22.0112V10.1668C43.0239 10.1668 44.1309 3 29.8057 3ZM22.5918 7.14109C23.8928 7.14109 24.9458 8.19416 24.9458 9.49518C24.9458 10.7962 23.8928 11.8493 22.5918 11.8493C22.2826 11.8497 21.9762 11.789 21.6904 11.671C21.4046 11.5528 21.1449 11.3794 20.9262 11.1606C20.7076 10.9421 20.5342 10.6824 20.416 10.3966C20.2978 10.1108 20.2373 9.80442 20.2377 9.49518C20.2377 8.19416 21.2907 7.14109 22.5918 7.14109Z" fill="url(#paint0_linear_34_362)"/>
<path d="M30.1942 56.7177C43.9034 56.7177 43.0478 50.7727 43.0478 50.7727L43.0309 44.6134H29.9495V42.7655H48.2284C48.2284 42.7655 57 43.7611 57 29.9288C57 16.0964 49.3439 16.5875 49.3439 16.5875H44.7741V23.005C44.7741 23.005 45.0205 30.6612 37.2394 30.6612H24.2661C24.2661 30.6612 16.9761 30.5431 16.9761 37.7065V49.5509C16.9761 49.5509 15.8691 56.7177 30.1942 56.7177ZM37.4083 52.5766C37.099 52.5771 36.7927 52.5165 36.5068 52.3983C36.221 52.2801 35.9614 52.1069 35.7426 51.8881C35.5241 51.6694 35.3506 51.4098 35.2325 51.1239C35.1143 50.8381 35.0537 50.5318 35.0542 50.2225C35.0542 48.9232 36.1072 47.8703 37.4083 47.8703C38.7093 47.8703 39.7623 48.9215 39.7623 50.2225C39.7623 51.5254 38.7093 52.5766 37.4083 52.5766Z" fill="url(#paint1_linear_34_362)"/>
<defs>
<linearGradient id="paint0_linear_34_362" x1="8.18911" y1="7.69463" x2="34.8902" y2="34.4852" gradientUnits="userSpaceOnUse">
<stop stop-color="#387EB8"/>
<stop offset="1" stop-color="#366994"/>
</linearGradient>
<linearGradient id="paint1_linear_34_362" x1="24.6153" y1="24.7382" x2="53.2925" y2="52.2121" gradientUnits="userSpaceOnUse">
<stop stop-color="#FFE052"/>
<stop offset="1" stop-color="#FFC331"/>
</linearGradient>
</defs>
</svg>